M48
; DRILL file KiCad 10.0.1 date 2026-08-12T12:20:13
; FORMAT={-:-/ absolute / inch / decimal}
; #@! TF.CreationDate,2026-08-12T12:20:13-07:00
; #@! TF.GenerationSoftware,Kicad,Pcbnew,10.0.1
; #@! TF.FileFunction,Plated,1,6,PTH
FMAT,2
INCH
; #@! TA.AperFunction,Plated,PTH,ViaDrill
T1C0.0059
; #@! TA.AperFunction,Plated,PTH,ViaDrill
T2C0.0079
; #@! TA.AperFunction,Plated,PTH,ComponentDrill
T3C0.0080
; #@! TA.AperFunction,Plated,PTH,ViaDrill
T4C0.0118
; #@! TA.AperFunction,Plated,PTH,ViaDrill
T5C0.0197
; #@! TA.AperFunction,Plated,PTH,ComponentDrill
T6C0.0197
; #@! TA.AperFunction,Plated,PTH,ViaDrill
T7C0.0236
; #@! TA.AperFunction,Plated,PTH,ComponentDrill
T8C0.0256
; #@! TA.AperFunction,Plated,PTH,ComponentDrill
T9C0.0315
; #@! TA.AperFunction,Plated,PTH,ComponentDrill
T10C0.0315
; #@! TA.AperFunction,Plated,PTH,ComponentDrill
T11C0.0354
; #@! TA.AperFunction,Plated,PTH,ComponentDrill
T12C0.0362
; #@! TA.AperFunction,Plated,PTH,ComponentDrill
T13C0.0394
; #@! TA.AperFunction,Plated,PTH,ComponentDrill
T14C0.0406
; #@! TA.AperFunction,Plated,PTH,ComponentDrill
T15C0.0591
; #@! TA.AperFunction,Plated,PTH,ComponentDrill
T16C0.0630
; #@! TA.AperFunction,Plated,PTH,ComponentDrill
T17C0.0669
; #@! TA.AperFunction,Plated,PTH,ComponentDrill
T18C0.0906
%
G90
G05
T1
X9.2358Y-2.9075
X9.2524Y-4.2984
X9.3134Y-3.0657
X9.4055Y-2.8957
X9.4161Y-5.7024
X9.4169Y-5.8524
X9.5524Y-2.9657
X9.6988Y-3.2563
X9.7122Y-4.7224
X9.7268Y-3.2539
X9.762Y-4.719
X9.837Y-4.796
X9.8535Y-5.3091
X9.9252Y-5.6969
X9.9795Y-4.0807
X9.9819Y-4.0402
X9.9819Y-4.0177
X9.9827Y-4.0598
X9.9831Y-3.9965
X9.9882Y-5.6024
X10.0575Y-4.5094
X10.0583Y-4.4783
X10.1Y-3.9831
X10.1004Y-3.9594
X10.1181Y-4.865
X10.1378Y-4.8654
X10.1575Y-4.8654
X10.1772Y-4.8656
X10.1969Y-4.8823
X10.1984Y-5.0398
X10.2008Y-3.9146
X10.2038Y-5.56
X10.2038Y-5.61
X10.2038Y-5.66
X10.2185Y-5.022
X10.2242Y-3.8923
X10.2378Y-5.4756
X10.3449Y-4.8642
X10.3528Y-4.1701
X10.3626Y-4.8752
X10.3846Y-4.1941
X10.4043Y-3.2594
X10.4323Y-3.3846
X10.4587Y-5.1417
X10.4591Y-4.8189
X10.4756Y-3.9287
X10.4787Y-5.1417
X10.497Y-3.33
X10.4981Y-4.3819
X10.4981Y-4.8189
X10.4983Y-5.1654
X10.5178Y-4.3819
X10.5178Y-4.8189
X10.518Y-5.1843
X10.5375Y-4.8189
X10.5377Y-5.2047
X10.5574Y-4.3819
X10.5574Y-4.8189
X10.5574Y-5.0591
X10.5771Y-4.3819
X10.5771Y-4.8189
X10.5771Y-5.0591
X10.5968Y-4.3819
X10.5968Y-4.8189
X10.6165Y-5.1637
X10.6165Y-4.3819
X10.6165Y-4.8189
X10.6181Y-2.9039
X10.6361Y-5.1558
X10.6361Y-4.8189
X10.6394Y-2.8705
X10.6524Y-5.3248
X10.6535Y-4.2677
X10.6558Y-4.8189
X10.6622Y-5.3437
X10.6724Y-4.6524
X10.6732Y-5.3614
X10.6755Y-4.8189
X10.6755Y-5.0551
X10.6811Y-4.374
X10.686Y-4.6376
X10.6952Y-4.8189
X10.6952Y-5.0551
X10.7126Y-4.374
X10.7149Y-4.8189
X10.7149Y-5.0551
X10.7187Y-4.2411
X10.7335Y-3.8575
X10.7346Y-4.8189
X10.7346Y-5.0551
X10.7543Y-5.0551
X10.7626Y-3.8461
X10.765Y-4.8102
X10.772Y-3.6287
X10.785Y-3.8597
X10.785Y-4.8087
X10.7936Y-5.2008
X10.8079Y-4.6441
X10.8133Y-4.8189
X10.8133Y-5.1811
X10.8303Y-3.8606
X10.833Y-4.8189
X10.833Y-5.1732
X10.8527Y-4.8189
X10.8705Y-3.6248
X10.8724Y-4.8189
X10.8724Y-5.1378
X10.8791Y-4.5173
X10.892Y-4.8189
X10.892Y-5.1772
X10.9047Y-4.5409
X10.9098Y-3.711
X10.9102Y-3.7402
X10.9106Y-4.352
X10.9117Y-5.2497
X10.9142Y-3.8606
X10.9193Y-4.7343
X10.9265Y-3.797
X10.934Y-4.706
X10.9429Y-4.6181
X10.9488Y-5.252
X10.9492Y-3.6209
X10.9504Y-5.0531
X10.9535Y-4.8087
X10.9537Y-4.7809
X10.963Y-4.5693
X10.9638Y-4.6075
X10.9685Y-4.7135
X10.9867Y-4.7857
X10.9874Y-4.7209
X10.9907Y-5.2087
X10.9921Y-5.2953
X11.0008Y-4.5988
X11.0075Y-4.7102
X11.0083Y-4.8118
X11.0283Y-3.937
X11.0298Y-5.0591
X11.0307Y-4.6378
X11.0307Y-4.8087
X11.0433Y-5.3189
X11.0495Y-5.0583
X11.0512Y-4.8091
X11.0602Y-3.1858
X11.0669Y-3.6224
X11.0692Y-5.2126
X11.0706Y-4.8059
X11.0874Y-3.2213
X11.0889Y-5.0591
X11.0894Y-4.8154
X11.0965Y-3.4791
X11.0992Y-3.5898
X11.1049Y-5.1498
X11.1087Y-3.839
X11.1201Y-4.6366
X11.1232Y-3.8055
X11.1264Y-3.622
X11.1283Y-5.1378
X11.1283Y-4.8232
X11.1307Y-3.585
X11.1318Y-4.4799
X11.1425Y-3.8524
X11.1443Y-4.8018
X11.148Y-5.1378
X11.1535Y-5.2913
X11.1618Y-3.6012
X11.1634Y-4.0016
X11.1638Y-3.9512
X11.165Y-4.7764
X11.1676Y-5.1378
X11.1693Y-5.2126
X11.1795Y-3.4929
X11.1835Y-3.9445
X11.1848Y-4.7994
X11.1854Y-3.615
X11.1873Y-5.1378
X11.1886Y-4.6453
X11.1945Y-4.6169
X11.2043Y-4.8071
X11.2075Y-3.6075
X11.2094Y-5.1449
X11.2182Y-3.8365
X11.2189Y-4.6457
X11.2244Y-5.2913
X11.2248Y-3.624
X11.2252Y-5.0639
X11.2299Y-4.8091
X11.2441Y-4.0398
X11.2441Y-5.2126
X11.2488Y-5.0512
X11.2531Y-3.5854
X11.2699Y-4.7
X11.2701Y-3.5535
X11.2717Y-5.1693
X11.2744Y-3.7079
X11.2756Y-5.0567
X11.2795Y-3.797
X11.2809Y-3.5853
X11.2913Y-5.2913
X11.311Y-5.2126
X11.3118Y-4.7181
X11.3232Y-3.9382
X11.3236Y-3.6185
X11.324Y-3.8597
X11.3248Y-4.8039
X11.3252Y-5.0575
X11.3453Y-4.8197
X11.3465Y-5.2913
X11.3543Y-3.7988
X11.3626Y-3.8697
X11.3701Y-5.1693
X11.378Y-5.2126
X11.3791Y-4.7803
X11.3815Y-3.9902
X11.3843Y-5.0591
X11.385Y-3.7024
X11.3984Y-4.0122
X11.4028Y-3.8591
X11.4173Y-5.2913
X11.4213Y-3.7
X11.437Y-5.2126
X11.4429Y-5.0555
X11.4432Y-4.817
X11.4512Y-3.7079
X11.4606Y-3.9382
X11.4756Y-3.4736
X11.4776Y-3.4492
X11.4791Y-3.9535
X11.4803Y-5.1693
X11.4831Y-5.0591
X11.4898Y-4.811
X11.4961Y-5.2126
X11.5012Y-3.9508
X11.5201Y-3.6976
X11.522Y-4.811
X11.534Y-3.834
X11.5346Y-4.7559
X11.5417Y-5.0567
X11.5484Y-4.8122
X11.5594Y-3.8622
X11.5811Y-4.813
X11.5866Y-5.2913
X11.5898Y-3.9559
X11.5921Y-5.0567
X11.6Y-4.9933
X11.6007Y-4.8256
X11.6185Y-3.6894
X11.6209Y-5.0563
X11.626Y-5.1693
X11.6405Y-5.0638
X11.6594Y-4.8134
X11.6594Y-5.0567
X11.6685Y-3.8598
X11.6724Y-5.0106
X11.6732Y-5.2913
X11.678Y-4.9346
X11.6791Y-4.7913
X11.6819Y-4.1512
X11.6823Y-4.0008
X11.6835Y-4.3004
X11.6839Y-4.2508
X11.6854Y-4.3504
X11.6984Y-5.065
X11.702Y-4.7713
X11.7165Y-3.6949
X11.7193Y-5.0551
X11.7213Y-4.7567
X11.7319Y-3.6079
X11.7382Y-4.8098
X11.7472Y-4.9339
X11.7531Y-3.6016
X11.7764Y-3.6043
X11.778Y-5.0587
X11.7953Y-3.8665
X11.7961Y-3.598
X11.7969Y-4.8079
X11.7992Y-5.3346
X11.8031Y-5.1693
X11.8307Y-5.2913
X11.8496Y-4.8571
X11.8551Y-3.9878
X11.8819Y-5.2913
X11.8941Y-4.0154
X11.8976Y-5.2126
X11.9134Y-5.1693
X11.9138Y-3.6976
X11.9138Y-3.8575
X11.9138Y-3.9469
X11.9197Y-3.9949
X11.9291Y-5.2126
X11.9343Y-4.3508
X11.9421Y-5.3331
X11.9531Y-3.702
X11.9531Y-3.9563
X11.9811Y-3.7043
X11.9811Y-5.2906
X11.9921Y-5.1693
X11.9937Y-3.9697
X11.9957Y-4.2507
X12.0157Y-3.6654
X12.0563Y-3.9673
X12.0591Y-5.2106
X12.1272Y-5.3343
X12.1772Y-5.2913
X12.1937Y-3.637
X12.213Y-5.213
X12.4331Y-5.2913
X12.622Y-5.2913
X12.622Y-5.3346
X12.6283Y-3.7953
X12.6307Y-3.7646
X12.6535Y-5.3346
X12.6693Y-5.2913
X12.6811Y-5.3346
X12.6839Y-3.678
X12.7047Y-5.3346
X12.7098Y-3.6783
X12.7283Y-5.1693
X12.7835Y-5.1693
X12.7874Y-5.2913
X12.8346Y-5.1693
X13.5433Y-5.1693
X13.5433Y-5.2126
X13.5472Y-5.3701
X13.563Y-5.252
X13.5709Y-5.3937
X13.5906Y-5.1693
X13.5906Y-5.4134
X13.5945Y-5.2126
X13.6122Y-5.3425
X13.6181Y-5.439
X13.6378Y-5.2992
X13.9358Y-5.55
X13.9476Y-5.524
X13.9697Y-5.6488
X14.0489Y-5.5516
X14.0531Y-5.5252
X14.1012Y-5.7783
X14.2382Y-5.6067
X14.3059Y-5.5189
T2
X12.7362Y-5.6144
X12.7516Y-5.5199
X12.7795Y-5.5707
X12.9841Y-5.7287
X13.0236Y-5.4154
X13.0886Y-5.6398
X13.1661Y-5.6159
X13.2Y-5.4272
X13.2Y-5.5179
X13.2Y-5.6124
T3
X10.2528Y-3.3051
X10.2961Y-3.3051
X10.746Y-3.3897
X10.746Y-3.433
T4
X9.0862Y-5.8943
X9.1429Y-5.3579
X9.1575Y-4.1854
X9.1622Y-5.6724
X9.1625Y-3.6132
X9.202Y-3.3575
X9.2047Y-4.6098
X9.2051Y-4.0795
X9.2063Y-4.5063
X9.2142Y-5.3929
X9.2157Y-5.428
X9.2161Y-3.5884
X9.2287Y-3.7632
X9.239Y-3.3591
X9.2452Y-3.8116
X9.246Y-3.588
X9.248Y-3.7427
X9.2491Y-3.6695
X9.2535Y-4.0799
X9.2543Y-4.1791
X9.2555Y-4.5051
X9.2555Y-4.6106
X9.2583Y-3.026
X9.2594Y-2.9776
X9.2878Y-3.5783
X9.2882Y-2.8992
X9.302Y-2.9185
X9.3104Y-3.7335
X9.3157Y-2.8764
X9.326Y-4.5165
X9.3535Y-2.8748
X9.3551Y-4.4421
X9.3874Y-5.428
X9.3886Y-5.3921
X9.3957Y-5.3535
X9.4267Y-4.5106
X9.4276Y-4.4831
X9.4488Y-5.7923
X9.4512Y-5.7545
X9.4921Y-5.4053
X9.4924Y-5.3463
X9.553Y-5.3758
X9.5564Y-3.5031
X9.5649Y-3.2368
X9.5744Y-3.0764
X9.5953Y-5.3126
X9.6075Y-3.1169
X9.6083Y-3.1469
X9.6087Y-3.1815
X9.6188Y-5.4116
X9.6811Y-2.9756
X9.6961Y-5.5602
X9.6965Y-5.3736
X9.6969Y-5.5205
X9.698Y-5.411
X9.6984Y-5.4472
X9.7303Y-4.2815
X9.7496Y-2.9563
X9.7665Y-3.0276
X9.7858Y-4.3189
X9.7858Y-5.7372
X9.7874Y-5.702
X9.802Y-4.4295
X9.8098Y-5.3724
X9.8102Y-5.4106
X9.8118Y-5.4476
X9.8138Y-5.5224
X9.8142Y-5.5602
X9.8146Y-5.485
X9.8276Y-3.1406
X9.8283Y-3.1008
X9.8335Y-4.0811
X9.8441Y-4.3429
X9.8927Y-5.6465
X9.9055Y-5.4106
X9.9134Y-5.4843
X9.9134Y-5.5236
X9.9134Y-5.5591
X9.9909Y-4.1299
X9.9917Y-3.9315
X9.9949Y-4.4346
X10.005Y-5.5551
X10.0157Y-5.3071
X10.0157Y-5.4016
X10.0244Y-3.8326
X10.0287Y-5.8356
X10.0299Y-4.9614
X10.0315Y-5.5335
X10.0417Y-4.3291
X10.0551Y-5.5039
X10.0551Y-5.6654
X10.0665Y-3.8917
X10.0787Y-5.1929
X10.0866Y-5.5854
X10.1193Y-5.3161
X10.1382Y-3.2594
X10.1461Y-5.3831
X10.1571Y-3.1087
X10.1614Y-5.185
X10.1713Y-3.3858
X10.1744Y-3.2587
X10.2071Y-3.3488
X10.212Y-5.3126
X10.213Y-3.2575
X10.2219Y-5.0763
X10.235Y-3.1071
X10.274Y-3.385
X10.274Y-3.427
X10.2764Y-5.4394
X10.3295Y-3.2606
X10.3394Y-3.3472
X10.4134Y-5.2992
X10.4173Y-3.9055
X10.472Y-3.0488
X10.4724Y-3.0004
X10.4724Y-5.2717
X10.49Y-3.97
X10.5055Y-3.8161
X10.5219Y-3.3749
X10.5476Y-5.8396
X10.5575Y-3.5831
X10.5693Y-3.0996
X10.5697Y-3.7843
X10.5736Y-3.048
X10.5744Y-2.9996
X10.6299Y-4.0547
X10.6547Y-3.7843
X10.6902Y-4.0583
X10.6988Y-3.4661
X10.6999Y-3.2649
X10.7011Y-3.3011
X10.7011Y-3.3413
X10.7165Y-5.3713
X10.722Y-3.7311
X10.7319Y-3.5236
X10.745Y-3.351
X10.7481Y-5.421
X10.7704Y-5.4433
X10.7913Y-3.4791
X10.795Y-3.327
X10.7968Y-3.7808
X10.8096Y-3.6073
X10.8583Y-2.9242
X10.8772Y-3.9894
X10.8894Y-3.837
X10.8949Y-3.0492
X10.8961Y-2.9996
X10.9008Y-2.9049
X10.9598Y-5.5134
X10.9685Y-2.9258
X10.9697Y-2.9628
X10.978Y-3.507
X10.9811Y-4.4268
X10.9945Y-3.0484
X10.9969Y-2.9984
X11.0059Y-4.3693
X11.0283Y-4.5685
X11.0287Y-4.5409
X11.0331Y-4.5925
X11.0386Y-3.4031
X11.0401Y-3.433
X11.0563Y-4.5409
X11.0567Y-4.5953
X11.0571Y-4.5677
X11.074Y-3.963
X11.0839Y-4.5681
X11.0846Y-4.5949
X11.0858Y-4.5402
X11.1087Y-5.4764
X11.1618Y-4.672
X11.1618Y-4.698
X11.1693Y-5.4252
X11.1729Y-3.5213
X11.1733Y-3.5504
X11.195Y-3.468
X11.213Y-4.7047
X11.2531Y-3.3606
X11.2575Y-3.396
X11.2728Y-4.4087
X11.2866Y-4.3669
X11.3161Y-4.5665
X11.3165Y-4.539
X11.3173Y-4.5945
X11.3441Y-4.539
X11.3445Y-4.5933
X11.3449Y-4.5658
X11.3717Y-4.5661
X11.3724Y-4.5929
X11.3736Y-4.5382
X11.3882Y-3.2539
X11.4063Y-5.6268
X11.4319Y-2.937
X11.4429Y-3.0969
X11.4488Y-4.6957
X11.4492Y-4.6709
X11.4752Y-2.8976
X11.4811Y-4.6976
X11.4901Y-4.5955
X11.4917Y-4.5655
X11.4917Y-3.0472
X11.513Y-4.0594
X11.5134Y-4.089
X11.5236Y-2.9035
X11.5291Y-3.1303
X11.5295Y-3.5933
X11.5359Y-5.5768
X11.5442Y-5.3799
X11.5581Y-5.5991
X11.5594Y-5.4969
X11.5626Y-3.4343
X11.5661Y-2.9004
X11.5752Y-3.2052
X11.5757Y-5.3799
X11.5988Y-2.9472
X11.6012Y-3.0916
X11.6012Y-3.127
X11.6094Y-3.5941
X11.6142Y-2.9091
X11.6287Y-2.9461
X11.6299Y-3.0943
X11.6299Y-3.1266
X11.6433Y-3.4382
X11.6559Y-3.1262
X11.6579Y-3.0939
X11.6689Y-2.9528
X11.6846Y-3.0939
X11.685Y-3.1258
X11.6878Y-5.6291
X11.6906Y-4.0508
X11.7102Y-2.9949
X11.7441Y-4.5157
X11.7441Y-4.5472
X11.7513Y-4.7772
X11.7583Y-3.0417
X11.7705Y-2.848
X11.7783Y-2.8764
X11.7783Y-2.9055
X11.7811Y-3.0709
X11.7848Y-4.7772
X11.7953Y-3.0039
X11.7957Y-2.9744
X11.8189Y-5.0
X11.8259Y-4.6002
X11.826Y-2.9736
X11.826Y-3.0039
X11.8583Y-5.0
X11.8642Y-5.6268
X11.8728Y-3.102
X11.8902Y-2.9634
X11.9075Y-2.8756
X11.9217Y-5.6339
X11.928Y-3.098
X11.9441Y-5.3941
X11.9606Y-4.6693
X11.9677Y-2.9654
X11.9677Y-3.0315
X11.9677Y-3.0614
X11.9681Y-2.9988
X11.9693Y-2.9039
X11.9807Y-2.8197
X12.0Y-4.7677
X12.0004Y-3.0299
X12.0008Y-3.0614
X12.002Y-2.9988
X12.0028Y-2.9031
X12.0201Y-5.5063
X12.0205Y-5.4173
X12.0669Y-4.3004
X12.0752Y-4.0992
X12.0861Y-2.9539
X12.1094Y-5.635
X12.1417Y-2.9421
X12.1441Y-3.6874
X12.1551Y-5.6339
X12.1575Y-4.8701
X12.1827Y-5.0866
X12.1902Y-5.4331
X12.1929Y-4.8701
X12.1969Y-5.0157
X12.1969Y-5.0512
X12.2196Y-5.8067
X12.2223Y-5.5433
X12.2343Y-3.8287
X12.3024Y-2.8571
X12.3216Y-5.5433
X12.3216Y-5.8051
X12.3223Y-5.6772
X12.3272Y-3.813
X12.3807Y-3.8717
X12.4213Y-4.5472
X12.4331Y-5.1142
X12.4429Y-3.8878
X12.4764Y-4.5472
X12.4937Y-4.9906
X12.5118Y-2.9201
X12.515Y-4.6559
X12.622Y-5.4882
X12.6228Y-5.4173
X12.6228Y-5.4567
X12.6228Y-5.5236
X12.6398Y-4.226
X12.6424Y-3.5826
X12.6433Y-4.3201
X12.6547Y-3.3665
X12.6559Y-3.2602
X12.6559Y-3.3122
X12.6567Y-3.2094
X12.6575Y-3.4236
X12.6587Y-3.1626
X12.6622Y-5.4173
X12.6622Y-5.4567
X12.6622Y-5.4882
X12.6622Y-5.5236
X12.6647Y-3.6048
X12.6988Y-4.1142
X12.7059Y-4.1764
X12.765Y-2.9185
X12.7654Y-2.6909
X12.7661Y-3.15
X12.7724Y-4.0413
X12.8098Y-5.7617
X12.8137Y-5.7205
X12.816Y-3.4089
X12.8181Y-4.274
X12.8185Y-5.6484
X12.8193Y-4.2232
X12.8383Y-3.4312
X12.9059Y-3.5161
X12.9063Y-3.5728
X12.9118Y-3.4839
X12.9161Y-5.5039
X12.9161Y-5.5315
X12.9173Y-3.6008
X12.924Y-5.437
X12.924Y-5.4606
X12.9437Y-5.5039
X12.9437Y-5.5315
X12.9512Y-4.265
X12.9513Y-4.2273
X12.9515Y-5.437
X12.9515Y-5.4606
X12.9531Y-4.1461
X12.9535Y-4.0634
X12.9539Y-4.1016
X12.9697Y-4.3157
X12.9791Y-5.437
X12.9791Y-5.4606
X12.9811Y-3.6106
X12.9909Y-5.5709
X12.9909Y-5.5984
X12.9909Y-5.626
X13.0Y-4.063
X13.0004Y-4.1012
X13.0022Y-3.4053
X13.0039Y-4.1862
X13.0039Y-4.2646
X13.0052Y-4.2282
X13.0118Y-3.815
X13.013Y-2.922
X13.0185Y-5.626
X13.0354Y-4.7402
X13.0354Y-4.7677
X13.0528Y-4.2236
X13.1287Y-5.6614
X13.1319Y-4.0654
X13.1346Y-4.2226
X13.1362Y-4.3118
X13.1366Y-5.689
X13.1382Y-2.9398
X13.1394Y-2.913
X13.1406Y-4.1957
X13.1445Y-4.1516
X13.1524Y-4.2504
X13.1559Y-4.089
X13.1562Y-5.7441
X13.1622Y-3.4063
X13.163Y-3.3146
X13.1831Y-3.7799
X13.2031Y-3.6083
X13.2272Y-4.0902
X13.2315Y-4.1669
X13.2524Y-3.3945
X13.2543Y-4.2382
X13.2638Y-3.815
X13.2642Y-4.0673
X13.2736Y-3.6335
X13.313Y-3.9189
X13.3189Y-3.0661
X13.335Y-4.0685
X13.3362Y-3.2311
X13.3508Y-2.6476
X13.3595Y-3.3087
X13.3799Y-3.5795
X13.3818Y-3.331
X13.3937Y-3.4669
X13.3988Y-3.2189
X13.4047Y-2.835
X13.4177Y-3.0472
X13.4398Y-3.3504
X13.4693Y-4.0102
X13.4776Y-3.7469
X13.4776Y-3.776
X13.4776Y-3.8035
X13.4843Y-2.9581
X13.4866Y-3.5823
X13.4988Y-3.3512
X13.5004Y-5.8587
X13.5012Y-5.7965
X13.513Y-3.5815
X13.5283Y-3.2846
X13.5283Y-3.7472
X13.5283Y-3.776
X13.5283Y-3.8031
X13.5461Y-3.3961
X13.5626Y-3.1913
X13.5654Y-2.874
X13.5744Y-3.7472
X13.5744Y-3.7752
X13.5748Y-3.8043
X13.5858Y-3.3937
X13.5898Y-3.2583
X13.5906Y-3.0862
X13.5909Y-3.2228
X13.6071Y-2.9291
X13.6085Y-3.1211
X13.622Y-5.5394
X13.622Y-5.5669
X13.6248Y-3.3945
X13.6308Y-3.1434
X13.6339Y-5.7953
X13.6339Y-5.8583
X13.6348Y-3.0471
X13.6382Y-4.8457
X13.6677Y-3.1776
X13.6732Y-5.0827
X13.6732Y-5.122
X13.6732Y-5.1614
X13.6732Y-5.2008
X13.6732Y-5.2402
X13.6732Y-5.2795
X13.6732Y-5.3189
X13.6732Y-5.3583
X13.6732Y-5.3976
X13.6732Y-5.4379
X13.6732Y-5.4764
X13.6732Y-5.5157
X13.6764Y-2.948
X13.6878Y-2.6898
X13.6878Y-2.7882
X13.6898Y-2.7386
X13.6945Y-3.55
X13.7094Y-5.6303
X13.711Y-3.5142
X13.726Y-2.9654
X13.7465Y-3.5142
X13.752Y-4.1496
X13.7528Y-4.1772
X13.7532Y-4.2047
X13.7541Y-4.1221
X13.7677Y-5.5945
X13.7701Y-3.2067
X13.7752Y-5.8555
X13.7772Y-5.0858
X13.7795Y-5.5394
X13.7795Y-5.5669
X13.7815Y-2.9787
X13.7854Y-3.1126
X13.7858Y-3.5142
X13.7862Y-3.0795
X13.8256Y-3.5142
X13.8406Y-3.2976
X13.8425Y-5.5906
X13.8551Y-5.0547
X13.8572Y-5.2533
X13.8572Y-5.3124
X13.8663Y-2.7324
X13.8672Y-5.1844
X13.8753Y-4.4377
X13.8757Y-4.4046
X13.8791Y-3.5157
X13.8858Y-4.874
X13.8858Y-4.9134
X13.8858Y-4.9528
X13.8858Y-5.5906
X13.9036Y-5.6978
X13.9064Y-5.3813
X13.9157Y-2.9787
X13.9162Y-5.2435
X13.9162Y-5.3222
X13.9209Y-3.076
X13.9287Y-3.4079
X13.9374Y-3.2815
X13.9413Y-5.6346
X13.9458Y-5.1844
X13.9458Y-5.3813
X13.947Y-3.1689
X13.9556Y-5.2829
X13.9654Y-3.2815
X13.9673Y-3.5331
X13.9701Y-4.111
X13.9705Y-4.1469
X13.9761Y-4.963
X13.9878Y-4.7937
X13.995Y-5.2435
X13.995Y-5.3222
X14.0048Y-5.7346
X14.0075Y-3.5339
X14.0142Y-2.9787
X14.0142Y-3.0684
X14.0173Y-5.5142
X14.0245Y-5.1807
X14.0245Y-5.3813
X14.0333Y-3.252
X14.0363Y-5.8094
X14.0406Y-2.8657
X14.042Y-5.6018
X14.0504Y-3.5335
X14.054Y-5.2632
X14.0547Y-5.6772
X14.0571Y-3.2976
X14.0579Y-5.2041
X14.0579Y-5.3606
X14.085Y-2.9748
X14.0886Y-3.5331
X14.089Y-3.1083
X14.089Y-3.2067
X14.1024Y-5.7181
X14.1072Y-5.8488
X14.1331Y-5.0713
X14.135Y-5.4866
X14.1354Y-4.9969
X14.1398Y-5.7169
X14.1453Y-5.8287
X14.1476Y-4.9177
X14.1516Y-5.6283
X14.1709Y-5.7449
X14.1728Y-5.4957
X14.1969Y-5.3957
X14.1996Y-5.6059
X14.2016Y-3.0098
X14.2024Y-3.2413
X14.2056Y-4.4326
X14.2165Y-5.3071
X14.2185Y-5.6846
X14.2461Y-5.1988
X14.3343Y-3.1815
X14.3343Y-5.5988
X14.3362Y-3.2213
X14.3575Y-3.0622
X14.3579Y-3.0862
X14.3583Y-3.1161
X14.3811Y-4.039
X14.4319Y-5.8299
X14.4319Y-5.8819
X14.4795Y-3.1242
X14.4807Y-3.6106
X14.5041Y-5.3085
X14.5661Y-3.1246
X14.6275Y-3.7905
X14.6351Y-3.8776
X14.6364Y-3.8437
X14.76Y-4.015
X14.8575Y-3.7124
X14.858Y-3.7803
X14.858Y-3.8087
X14.9008Y-3.7124
X14.9429Y-3.7093
X14.9937Y-3.8748
X15.0051Y-3.9063
X15.0583Y-5.5039
X15.0665Y-3.6789
X15.0665Y-3.714
X15.0953Y-3.6789
X15.0953Y-3.714
X15.0957Y-3.6447
T5
X9.4307Y-3.465
X11.7299Y-3.5024
X11.7933Y-3.5008
X11.8484Y-3.5039
X11.8992Y-3.5024
X11.952Y-3.5028
T6
X9.3673Y-5.6004
T7
X9.4894Y-3.6134
T8
X11.3866Y-2.8094
X11.3866Y-2.8594
X11.3866Y-2.9094
X11.3866Y-2.9594
X11.4201Y-2.6984
X11.4701Y-2.6984
X11.5201Y-2.6984
X11.5701Y-2.6984
X11.6709Y-2.6972
X11.7209Y-2.6972
X11.7709Y-2.6972
X11.8209Y-2.6972
X12.0606Y-2.6835
X12.1106Y-2.6835
X12.1606Y-2.6835
X12.2106Y-2.6835
X13.2175Y-4.3594
X13.2675Y-4.3594
X13.3175Y-4.3594
X13.3675Y-4.3594
T9
X9.1476Y-2.7406
X9.1476Y-2.8193
X9.2264Y-2.7406
X9.2264Y-2.8193
X9.3051Y-2.7406
X9.3051Y-2.8193
X9.3839Y-2.7406
X9.3839Y-2.8193
X9.4614Y-3.7578
X9.4614Y-3.8366
X9.4614Y-3.9153
X9.4614Y-3.9941
X9.4614Y-4.0728
X9.4614Y-4.1515
X9.4614Y-4.2303
X9.4614Y-4.309
X9.4626Y-2.7406
X9.4626Y-2.8193
X9.5402Y-3.7578
X9.5402Y-3.8366
X9.5402Y-3.9153
X9.5402Y-3.9941
X9.5402Y-4.0728
X9.5402Y-4.1515
X9.5402Y-4.2303
X9.5402Y-4.309
X9.5413Y-2.7406
X9.5413Y-2.8193
X9.6201Y-2.7406
X9.6201Y-2.8193
X9.6988Y-2.7406
X9.6988Y-2.8193
X9.9106Y-2.7441
X9.9106Y-2.8228
X9.9894Y-2.7441
X9.9894Y-2.8228
X10.0681Y-2.7441
X10.0681Y-2.8228
X10.1469Y-2.7441
X10.1469Y-2.8228
X10.2256Y-2.7441
X10.2256Y-2.8228
X10.3043Y-2.7441
X10.3043Y-2.8228
X10.3831Y-2.7441
X10.3831Y-2.8228
X10.4618Y-2.7441
X10.4618Y-2.8228
X10.6783Y-2.7504
X10.6783Y-2.8291
X10.7571Y-2.7504
X10.7571Y-2.8291
X10.8358Y-2.7504
X10.8358Y-2.8291
X10.9146Y-2.7504
X10.9146Y-2.8291
X10.9933Y-2.7504
X10.9933Y-2.8291
X11.072Y-2.7504
X11.072Y-2.8291
X11.1508Y-2.7504
X11.1508Y-2.8291
X11.2295Y-2.7504
X11.2295Y-2.8291
T11
X14.4571Y-4.3211
X14.4571Y-4.4211
X14.4571Y-4.5211
X14.4571Y-4.6211
X14.4571Y-4.7211
X14.4571Y-5.0533
X14.4571Y-5.1533
X14.4571Y-5.2533
X14.4571Y-5.3533
X14.4571Y-5.4533
X14.5571Y-4.2711
X14.5571Y-4.3711
X14.5571Y-4.4711
X14.5571Y-4.5711
X14.5571Y-4.6711
X14.5571Y-5.0033
X14.5571Y-5.1033
X14.5571Y-5.2033
X14.5571Y-5.3033
X14.5571Y-5.4033
T12
X10.8291Y-5.6706
X10.9276Y-5.6706
X11.0063Y-5.6706
X11.1047Y-5.6706
T13
X8.7437Y-3.02
X8.7437Y-3.12
X8.7437Y-3.22
X8.7437Y-3.32
X8.7437Y-3.42
X8.7437Y-3.52
X8.7437Y-3.62
X8.7437Y-3.72
X8.7437Y-3.82
X8.7437Y-3.92
X8.7437Y-4.02
X8.7437Y-4.12
X8.7437Y-4.22
X8.7437Y-4.32
X8.7437Y-4.42
X8.7437Y-4.52
X8.7437Y-4.62
X8.7437Y-4.72
X8.7437Y-4.82
X8.7437Y-4.92
X8.7437Y-5.02
X8.7437Y-5.12
X8.7437Y-5.22
X8.7437Y-5.32
X8.7437Y-5.42
X8.7437Y-5.52
X8.8437Y-3.02
X8.8437Y-3.12
X8.8437Y-3.22
X8.8437Y-3.32
X8.8437Y-3.42
X8.8437Y-3.52
X8.8437Y-3.62
X8.8437Y-3.72
X8.8437Y-3.82
X8.8437Y-3.92
X8.8437Y-4.02
X8.8437Y-4.12
X8.8437Y-4.22
X8.8437Y-4.32
X8.8437Y-4.42
X8.8437Y-4.52
X8.8437Y-4.62
X8.8437Y-4.72
X8.8437Y-4.82
X8.8437Y-4.92
X8.8437Y-5.02
X8.8437Y-5.12
X8.8437Y-5.22
X8.8437Y-5.32
X8.8437Y-5.42
X8.8437Y-5.52
X8.9437Y-3.02
X8.9437Y-3.12
X8.9437Y-3.22
X8.9437Y-3.32
X8.9437Y-3.42
X8.9437Y-3.52
X8.9437Y-3.62
X8.9437Y-3.72
X8.9437Y-3.82
X8.9437Y-3.92
X8.9437Y-4.02
X8.9437Y-4.12
X8.9437Y-4.22
X8.9437Y-4.32
X8.9437Y-4.42
X8.9437Y-4.52
X8.9437Y-4.62
X8.9437Y-4.72
X8.9437Y-4.82
X8.9437Y-4.92
X8.9437Y-5.02
X8.9437Y-5.12
X8.9437Y-5.22
X8.9437Y-5.32
X8.9437Y-5.42
X8.9437Y-5.52
X9.0437Y-3.02
X9.0437Y-3.12
X9.0437Y-3.22
X9.0437Y-3.32
X9.0437Y-3.42
X9.0437Y-3.52
X9.0437Y-3.62
X9.0437Y-3.72
X9.0437Y-3.82
X9.0437Y-3.92
X9.0437Y-4.02
X9.0437Y-4.12
X9.0437Y-4.22
X9.0437Y-4.32
X9.0437Y-4.42
X9.0437Y-4.52
X9.0437Y-4.62
X9.0437Y-4.72
X9.0437Y-4.82
X9.0437Y-4.92
X9.0437Y-5.02
X9.0437Y-5.12
X9.0437Y-5.22
X9.0437Y-5.32
X9.0437Y-5.42
X9.0437Y-5.52
X12.3108Y-3.986
X12.3108Y-4.086
X12.4108Y-3.986
X12.4108Y-4.086
T14
X14.9677Y-4.2352
X14.9677Y-4.3352
X14.9677Y-4.6569
X14.9677Y-4.7569
X14.9677Y-4.9675
X14.9677Y-5.0675
X14.9677Y-5.3892
X14.9677Y-5.4892
T15
X14.5256Y-2.8238
T16
X14.687Y-4.1911
X14.687Y-4.801
X14.687Y-4.9234
X14.687Y-5.5333
T17
X14.4256Y-2.7238
X14.4256Y-2.9238
X14.6256Y-2.7238
X14.6256Y-2.9238
T18
X10.7083Y-5.7773
X11.2256Y-5.7773
T10
G00X11.3719Y-5.7033
M15
G01X11.3719Y-5.7348
M16
G05
G00X11.3719Y-5.8718
M15
G01X11.3719Y-5.8954
M16
G05
G00X11.7124Y-5.7033
M15
G01X11.7124Y-5.7348
M16
G05
G00X11.7124Y-5.8718
M15
G01X11.7124Y-5.8954
M16
G05
G00X11.8411Y-5.6888
M15
G01X11.8411Y-5.7203
M16
G05
G00X11.8411Y-5.8573
M15
G01X11.8411Y-5.881
M16
G05
G00X12.1817Y-5.6888
M15
G01X12.1817Y-5.7203
M16
G05
G00X12.1817Y-5.8573
M15
G01X12.1817Y-5.881
M16
G05
M30
