%TF.GenerationSoftware,KiCad,Pcbnew,10.0.1*%
%TF.CreationDate,2026-08-12T12:20:12-07:00*%
%TF.ProjectId,CADENCE i.MX8X Carrier Board rev1,43414445-4e43-4452-9069-2e4d58385820,rev?*%
%TF.SameCoordinates,Original*%
%TF.FileFunction,Soldermask,Top*%
%TF.FilePolarity,Negative*%
%FSLAX46Y46*%
G04 Gerber Fmt 4.6, Leading zero omitted, Abs format (unit mm)*
G04 Created by KiCad (PCBNEW 10.0.1) date 2026-08-12 12:20:12*
%MOMM*%
%LPD*%
G01*
G04 APERTURE LIST*
G04 Aperture macros list*
%AMRoundRect*
0 Rectangle with rounded corners*
0 $1 Rounding radius*
0 $2 $3 $4 $5 $6 $7 $8 $9 X,Y pos of 4 corners*
0 Add a 4 corners polygon primitive as box body*
4,1,4,$2,$3,$4,$5,$6,$7,$8,$9,$2,$3,0*
0 Add four circle primitives for the rounded corners*
1,1,$1+$1,$2,$3*
1,1,$1+$1,$4,$5*
1,1,$1+$1,$6,$7*
1,1,$1+$1,$8,$9*
0 Add four rect primitives between the rounded corners*
20,1,$1+$1,$2,$3,$4,$5,0*
20,1,$1+$1,$4,$5,$6,$7,0*
20,1,$1+$1,$6,$7,$8,$9,0*
20,1,$1+$1,$8,$9,$2,$3,0*%
%AMRotRect*
0 Rectangle, with rotation*
0 The origin of the aperture is its center*
0 $1 length*
0 $2 width*
0 $3 Rotation angle, in degrees counterclockwise*
0 Add horizontal line*
21,1,$1,$2,0,0,$3*%
%AMFreePoly0*
4,1,15,0.215355,0.145355,0.230000,0.110000,0.230000,0.030000,0.215355,-0.005355,0.210697,-0.009468,0.030697,-0.149468,0.000000,-0.160000,-0.180000,-0.160000,-0.215355,-0.145355,-0.230000,-0.110000,-0.230000,0.110000,-0.215355,0.145355,-0.180000,0.160000,0.180000,0.160000,0.215355,0.145355,0.215355,0.145355,$1*%
%AMFreePoly1*
4,1,15,0.030697,0.139468,0.210697,-0.000532,0.229614,-0.033798,0.230000,-0.040000,0.230000,-0.120000,0.215355,-0.155355,0.180000,-0.170000,-0.180000,-0.170000,-0.215355,-0.155355,-0.230000,-0.120000,-0.230000,0.100000,-0.215355,0.135355,-0.180000,0.150000,0.000000,0.150000,0.030697,0.139468,0.030697,0.139468,$1*%
%AMFreePoly2*
4,1,15,0.215355,0.135355,0.230000,0.100000,0.230000,-0.120000,0.215355,-0.155355,0.180000,-0.170000,-0.180000,-0.170000,-0.215355,-0.155355,-0.230000,-0.120000,-0.230000,-0.040000,-0.215355,-0.004645,-0.210697,-0.000532,-0.030697,0.139468,0.000000,0.150000,0.180000,0.150000,0.215355,0.135355,0.215355,0.135355,$1*%
%AMFreePoly3*
4,1,15,0.215355,0.145355,0.230000,0.110000,0.230000,-0.110000,0.215355,-0.145355,0.180000,-0.160000,0.000000,-0.160000,-0.030697,-0.149468,-0.210697,-0.009468,-0.229614,0.023798,-0.230000,0.030000,-0.230000,0.110000,-0.215355,0.145355,-0.180000,0.160000,0.180000,0.160000,0.215355,0.145355,0.215355,0.145355,$1*%
%AMFreePoly4*
4,1,23,0.500000,-0.750000,0.000000,-0.750000,0.000000,-0.745722,-0.065263,-0.745722,-0.191342,-0.711940,-0.304381,-0.646677,-0.396677,-0.554381,-0.461940,-0.441342,-0.495722,-0.315263,-0.495722,-0.250000,-0.500000,-0.250000,-0.500000,0.250000,-0.495722,0.250000,-0.495722,0.315263,-0.461940,0.441342,-0.396677,0.554381,-0.304381,0.646677,-0.191342,0.711940,-0.065263,0.745722,0.000000,0.745722,
0.000000,0.750000,0.500000,0.750000,0.500000,-0.750000,0.500000,-0.750000,$1*%
%AMFreePoly5*
4,1,23,0.000000,0.745722,0.065263,0.745722,0.191342,0.711940,0.304381,0.646677,0.396677,0.554381,0.461940,0.441342,0.495722,0.315263,0.495722,0.250000,0.500000,0.250000,0.500000,-0.250000,0.495722,-0.250000,0.495722,-0.315263,0.461940,-0.441342,0.396677,-0.554381,0.304381,-0.646677,0.191342,-0.711940,0.065263,-0.745722,0.000000,-0.745722,0.000000,-0.750000,-0.500000,-0.750000,
-0.500000,0.750000,0.000000,0.750000,0.000000,0.745722,0.000000,0.745722,$1*%
G04 Aperture macros list end*
%ADD10RoundRect,0.135000X0.135000X0.185000X-0.135000X0.185000X-0.135000X-0.185000X0.135000X-0.185000X0*%
%ADD11R,1.000000X1.000000*%
%ADD12R,1.700000X0.800000*%
%ADD13RoundRect,0.140000X-0.140000X-0.170000X0.140000X-0.170000X0.140000X0.170000X-0.140000X0.170000X0*%
%ADD14RoundRect,0.218750X0.256250X-0.218750X0.256250X0.218750X-0.256250X0.218750X-0.256250X-0.218750X0*%
%ADD15R,0.249999X0.499999*%
%ADD16R,1.599999X0.900001*%
%ADD17C,0.499999*%
%ADD18R,1.524000X0.762000*%
%ADD19RoundRect,0.200000X-0.200000X-0.275000X0.200000X-0.275000X0.200000X0.275000X-0.200000X0.275000X0*%
%ADD20R,0.600000X1.100000*%
%ADD21RoundRect,0.225000X0.225000X0.250000X-0.225000X0.250000X-0.225000X-0.250000X0.225000X-0.250000X0*%
%ADD22RoundRect,0.135000X-0.135000X-0.185000X0.135000X-0.185000X0.135000X0.185000X-0.135000X0.185000X0*%
%ADD23RoundRect,0.125000X-0.125000X0.537500X-0.125000X-0.537500X0.125000X-0.537500X0.125000X0.537500X0*%
%ADD24R,0.790000X0.540000*%
%ADD25RoundRect,0.140000X-0.170000X0.140000X-0.170000X-0.140000X0.170000X-0.140000X0.170000X0.140000X0*%
%ADD26RoundRect,0.135000X0.185000X-0.135000X0.185000X0.135000X-0.185000X0.135000X-0.185000X-0.135000X0*%
%ADD27RoundRect,0.135000X-0.185000X0.135000X-0.185000X-0.135000X0.185000X-0.135000X0.185000X0.135000X0*%
%ADD28RoundRect,0.225000X-0.225000X-0.250000X0.225000X-0.250000X0.225000X0.250000X-0.225000X0.250000X0*%
%ADD29RoundRect,0.225000X-0.250000X0.225000X-0.250000X-0.225000X0.250000X-0.225000X0.250000X0.225000X0*%
%ADD30RoundRect,0.140000X0.170000X-0.140000X0.170000X0.140000X-0.170000X0.140000X-0.170000X-0.140000X0*%
%ADD31R,0.540000X0.570000*%
%ADD32RoundRect,0.140000X0.140000X0.170000X-0.140000X0.170000X-0.140000X-0.170000X0.140000X-0.170000X0*%
%ADD33RoundRect,0.250000X-0.250000X-0.475000X0.250000X-0.475000X0.250000X0.475000X-0.250000X0.475000X0*%
%ADD34R,1.524000X1.524000*%
%ADD35C,1.524000*%
%ADD36R,0.660400X1.549400*%
%ADD37R,1.295400X1.905000*%
%ADD38R,1.400000X1.400000*%
%ADD39C,1.400000*%
%ADD40RoundRect,0.150000X0.150000X-0.587500X0.150000X0.587500X-0.150000X0.587500X-0.150000X-0.587500X0*%
%ADD41R,3.000000X8.000000*%
%ADD42RoundRect,0.200000X0.200000X0.275000X-0.200000X0.275000X-0.200000X-0.275000X0.200000X-0.275000X0*%
%ADD43C,1.000000*%
%ADD44RoundRect,0.218750X0.218750X0.256250X-0.218750X0.256250X-0.218750X-0.256250X0.218750X-0.256250X0*%
%ADD45R,0.750000X1.000000*%
%ADD46FreePoly0,0.000000*%
%ADD47FreePoly1,0.000000*%
%ADD48FreePoly2,0.000000*%
%ADD49FreePoly3,0.000000*%
%ADD50RotRect,0.480000X0.480000X45.000000*%
%ADD51RoundRect,0.150000X0.150000X-0.512500X0.150000X0.512500X-0.150000X0.512500X-0.150000X-0.512500X0*%
%ADD52R,0.570000X0.540000*%
%ADD53RoundRect,0.150000X0.587500X0.150000X-0.587500X0.150000X-0.587500X-0.150000X0.587500X-0.150000X0*%
%ADD54RoundRect,0.218750X-0.218750X-0.256250X0.218750X-0.256250X0.218750X0.256250X-0.218750X0.256250X0*%
%ADD55R,0.380000X0.780000*%
%ADD56RoundRect,0.150000X0.825000X0.150000X-0.825000X0.150000X-0.825000X-0.150000X0.825000X-0.150000X0*%
%ADD57RoundRect,0.225000X0.250000X-0.225000X0.250000X0.225000X-0.250000X0.225000X-0.250000X-0.225000X0*%
%ADD58C,1.612000*%
%ADD59C,1.749000*%
%ADD60C,2.604000*%
%ADD61R,0.450000X1.050000*%
%ADD62R,2.100000X2.100000*%
%ADD63R,0.665000X0.300000*%
%ADD64R,0.540000X0.790000*%
%ADD65RoundRect,0.250000X-0.475000X0.250000X-0.475000X-0.250000X0.475000X-0.250000X0.475000X0.250000X0*%
%ADD66RoundRect,0.100000X-0.637500X-0.100000X0.637500X-0.100000X0.637500X0.100000X-0.637500X0.100000X0*%
%ADD67R,0.760000X1.270000*%
%ADD68RoundRect,0.125000X0.537500X0.125000X-0.537500X0.125000X-0.537500X-0.125000X0.537500X-0.125000X0*%
%ADD69R,1.200000X1.400000*%
%ADD70RoundRect,0.225000X0.375000X-0.225000X0.375000X0.225000X-0.375000X0.225000X-0.375000X-0.225000X0*%
%ADD71O,1.800000X0.280000*%
%ADD72O,0.280000X1.800000*%
%ADD73FreePoly4,90.000000*%
%ADD74FreePoly5,90.000000*%
%ADD75R,0.300000X0.665000*%
%ADD76RoundRect,0.250000X0.625000X-0.312500X0.625000X0.312500X-0.625000X0.312500X-0.625000X-0.312500X0*%
%ADD77C,2.300000*%
%ADD78C,2.500000*%
%ADD79O,1.200000X2.000000*%
%ADD80O,1.200000X1.800000*%
%ADD81R,0.300000X1.300000*%
%ADD82R,0.375000X0.350000*%
%ADD83R,0.350000X0.375000*%
%ADD84RoundRect,0.150000X-0.512500X-0.150000X0.512500X-0.150000X0.512500X0.150000X-0.512500X0.150000X0*%
%ADD85R,1.400000X1.150000*%
%ADD86R,3.429000X4.826000*%
%ADD87R,0.900000X2.200000*%
%ADD88R,3.500000X2.200000*%
%ADD89R,2.800000X5.000000*%
%ADD90R,4.000000X5.000000*%
%ADD91RoundRect,0.200000X0.275000X-0.200000X0.275000X0.200000X-0.275000X0.200000X-0.275000X-0.200000X0*%
%ADD92R,4.826000X3.429000*%
%ADD93RoundRect,0.120750X0.281750X-0.680500X0.281750X0.680500X-0.281750X0.680500X-0.281750X-0.680500X0*%
%ADD94O,0.850000X0.280000*%
%ADD95O,0.280000X0.850000*%
%ADD96R,4.100000X4.100000*%
%ADD97R,0.850000X0.850000*%
%ADD98R,1.000000X0.750000*%
%ADD99R,0.812800X0.254000*%
%ADD100R,0.254000X0.812800*%
%ADD101R,1.752600X4.800600*%
%ADD102R,0.256999X0.782800*%
%ADD103R,0.257000X0.772800*%
%ADD104R,0.254000X0.772800*%
%ADD105RoundRect,0.250000X-0.625000X0.312500X-0.625000X-0.312500X0.625000X-0.312500X0.625000X0.312500X0*%
%ADD106RoundRect,0.125000X-0.537500X-0.125000X0.537500X-0.125000X0.537500X0.125000X-0.537500X0.125000X0*%
%ADD107RoundRect,0.150000X-0.650000X-0.150000X0.650000X-0.150000X0.650000X0.150000X-0.650000X0.150000X0*%
%ADD108R,0.675000X0.280000*%
%ADD109R,0.280000X0.675000*%
%ADD110R,0.300000X0.505000*%
%ADD111R,1.700000X1.700000*%
%ADD112C,1.700000*%
%ADD113R,1.528000X0.650000*%
%ADD114R,0.305000X1.450000*%
%ADD115RoundRect,0.102000X-0.714000X-0.714000X0.714000X-0.714000X0.714000X0.714000X-0.714000X0.714000X0*%
%ADD116C,1.632000*%
%ADD117C,3.520000*%
%ADD118R,0.240000X0.900000*%
%ADD119R,0.900000X0.240000*%
%ADD120R,0.900000X1.900000*%
%ADD121RoundRect,0.087500X0.250000X0.087500X-0.250000X0.087500X-0.250000X-0.087500X0.250000X-0.087500X0*%
%ADD122RoundRect,0.162500X-0.312500X-0.162500X0.312500X-0.162500X0.312500X0.162500X-0.312500X0.162500X0*%
%ADD123O,2.050000X0.590000*%
%ADD124RoundRect,0.237500X-0.250000X-0.237500X0.250000X-0.237500X0.250000X0.237500X-0.250000X0.237500X0*%
%ADD125R,1.270000X0.760000*%
%ADD126O,2.400500X0.574000*%
%ADD127R,0.650000X1.528000*%
G04 APERTURE END LIST*
%TO.C,JP1*%
G36*
X334350000Y-135950000D02*
G01*
X335850000Y-135950000D01*
X335850000Y-136250000D01*
X334350000Y-136250000D01*
X334350000Y-135950000D01*
G37*
%TO.C,JP2*%
G36*
X253050000Y-114589200D02*
G01*
X254550000Y-114589200D01*
X254550000Y-114889200D01*
X253050000Y-114889200D01*
X253050000Y-114589200D01*
G37*
%TO.C,JP3*%
G36*
X248250000Y-114539200D02*
G01*
X249750000Y-114539200D01*
X249750000Y-114839200D01*
X248250000Y-114839200D01*
X248250000Y-114539200D01*
G37*
%TD*%
D10*
%TO.C,R114*%
X267760000Y-76210000D03*
X266740000Y-76210000D03*
%TD*%
D11*
%TO.C,TP21*%
X382690000Y-98915000D03*
%TD*%
D12*
%TO.C,U10*%
X301700000Y-120645000D03*
X301700000Y-119375000D03*
X301700000Y-118105000D03*
X301700000Y-116835000D03*
X294300000Y-116835000D03*
X294300000Y-118105000D03*
X294300000Y-119375000D03*
X294300000Y-120645000D03*
%TD*%
D13*
%TO.C,C106*%
X333640000Y-91660000D03*
X334600000Y-91660000D03*
%TD*%
D14*
%TO.C,D1*%
X268528800Y-102450400D03*
X268528800Y-100875400D03*
%TD*%
D15*
%TO.C,U39*%
X260219998Y-84900001D03*
X260719997Y-84900001D03*
X261219999Y-84900001D03*
X261719997Y-84900001D03*
X261719997Y-82999999D03*
X261219999Y-82999999D03*
X260719997Y-82999999D03*
X260219998Y-82999999D03*
D16*
X260969996Y-83950000D03*
D17*
X260420000Y-83950000D03*
X261519998Y-83950000D03*
%TD*%
D18*
%TO.C,SW3*%
X259175500Y-139955000D03*
X259175500Y-141225000D03*
X259175500Y-142495000D03*
X259175500Y-143765000D03*
X266795500Y-143765000D03*
X266795500Y-142495000D03*
X266795500Y-141225000D03*
X266795500Y-139955000D03*
%TD*%
D11*
%TO.C,TP6*%
X337350000Y-136750000D03*
%TD*%
D19*
%TO.C,R21*%
X373228700Y-101295200D03*
X374878700Y-101295200D03*
%TD*%
D20*
%TO.C,TV5*%
X339680000Y-83000000D03*
X338730000Y-83000000D03*
X337780000Y-83000000D03*
X337780000Y-85700000D03*
X338730000Y-85700000D03*
X339680000Y-85700000D03*
%TD*%
D21*
%TO.C,C76*%
X349330000Y-126230000D03*
X347780000Y-126230000D03*
%TD*%
D22*
%TO.C,R12*%
X305120000Y-71610000D03*
X306140000Y-71610000D03*
%TD*%
%TO.C,R91*%
X347960000Y-148780000D03*
X348980000Y-148780000D03*
%TD*%
D23*
%TO.C,U36*%
X236150000Y-87420750D03*
X235500000Y-87420750D03*
X234850000Y-87420750D03*
X234200000Y-87420750D03*
X234200000Y-89695750D03*
X234850000Y-89695750D03*
X235500000Y-89695750D03*
X236150000Y-89695750D03*
%TD*%
D11*
%TO.C,TP8*%
X305200000Y-88900000D03*
%TD*%
D10*
%TO.C,R84*%
X349110000Y-142100000D03*
X348090000Y-142100000D03*
%TD*%
D24*
%TO.C,C40*%
X324600000Y-143300000D03*
X323500000Y-143300000D03*
%TD*%
D10*
%TO.C,R69*%
X356263200Y-143301000D03*
X355243200Y-143301000D03*
%TD*%
D25*
%TO.C,C91*%
X238610000Y-113670000D03*
X238610000Y-114630000D03*
%TD*%
D26*
%TO.C,R149*%
X351210000Y-88570000D03*
X351210000Y-87550000D03*
%TD*%
D10*
%TO.C,R74*%
X349110000Y-136100000D03*
X348090000Y-136100000D03*
%TD*%
D27*
%TO.C,R66*%
X355222599Y-138935000D03*
X355222599Y-139955000D03*
%TD*%
D11*
%TO.C,TP7*%
X337350000Y-134750000D03*
%TD*%
%TO.C,TP13*%
X261515500Y-146400000D03*
%TD*%
D24*
%TO.C,C41*%
X323500000Y-142050000D03*
X324600000Y-142050000D03*
%TD*%
D28*
%TO.C,C130*%
X240147500Y-88970000D03*
X241697500Y-88970000D03*
%TD*%
D29*
%TO.C,C8*%
X301540000Y-76345000D03*
X301540000Y-77895000D03*
%TD*%
D26*
%TO.C,R115*%
X235050000Y-105400000D03*
X235050000Y-104380000D03*
%TD*%
%TO.C,R67*%
X354240800Y-142302400D03*
X354240800Y-141282400D03*
%TD*%
D30*
%TO.C,C108*%
X344070000Y-87890000D03*
X344070000Y-86930000D03*
%TD*%
D22*
%TO.C,R102*%
X295040000Y-143060000D03*
X296060000Y-143060000D03*
%TD*%
D11*
%TO.C,TP23*%
X233000000Y-77700000D03*
%TD*%
D10*
%TO.C,R80*%
X359982599Y-129935000D03*
X358962599Y-129935000D03*
%TD*%
D31*
%TO.C,R36*%
X327100000Y-137000000D03*
X327100000Y-136140000D03*
%TD*%
D22*
%TO.C,R89*%
X362910000Y-141280000D03*
X363930000Y-141280000D03*
%TD*%
D25*
%TO.C,C104*%
X340170000Y-89230000D03*
X340170000Y-90190000D03*
%TD*%
D32*
%TO.C,C105*%
X336170000Y-73970000D03*
X335210000Y-73970000D03*
%TD*%
D33*
%TO.C,C94*%
X381050000Y-95875000D03*
X382950000Y-95875000D03*
%TD*%
D34*
%TO.C,J9*%
X224630000Y-140208000D03*
D35*
X222090000Y-140208000D03*
X224630000Y-137668000D03*
X222090000Y-137668000D03*
X224630000Y-135128000D03*
X222090000Y-135128000D03*
X224630000Y-132588000D03*
X222090000Y-132588000D03*
X224630000Y-130048000D03*
X222090000Y-130048000D03*
X224630000Y-127508000D03*
X222090000Y-127508000D03*
X224630000Y-124968000D03*
X222090000Y-124968000D03*
X224630000Y-122428000D03*
X222090000Y-122428000D03*
X224630000Y-119888000D03*
X222090000Y-119888000D03*
X224630000Y-117348000D03*
X222090000Y-117348000D03*
X224630000Y-114808000D03*
X222090000Y-114808000D03*
X224630000Y-112268000D03*
X222090000Y-112268000D03*
X224630000Y-109728000D03*
X222090000Y-109728000D03*
X224630000Y-107188000D03*
X222090000Y-107188000D03*
X224630000Y-104648000D03*
X222090000Y-104648000D03*
X224630000Y-102108000D03*
X222090000Y-102108000D03*
X224630000Y-99568000D03*
X222090000Y-99568000D03*
X224630000Y-97028000D03*
X222090000Y-97028000D03*
X224630000Y-94488000D03*
X222090000Y-94488000D03*
X224630000Y-91948000D03*
X222090000Y-91948000D03*
X224630000Y-89408000D03*
X222090000Y-89408000D03*
X224630000Y-86868000D03*
X222090000Y-86868000D03*
X224630000Y-84328000D03*
X222090000Y-84328000D03*
X224630000Y-81788000D03*
X222090000Y-81788000D03*
X224630000Y-79248000D03*
X222090000Y-79248000D03*
X224630000Y-76708000D03*
X222090000Y-76708000D03*
%TD*%
D36*
%TO.C,J7*%
X361279999Y-101560000D03*
X362280000Y-101560000D03*
X363280000Y-101560000D03*
X364280001Y-101560000D03*
X365279999Y-101560000D03*
X366280000Y-101560000D03*
X367280000Y-101560000D03*
X368280001Y-101560000D03*
D37*
X369580001Y-99035001D03*
X359979999Y-99035001D03*
%TD*%
D22*
%TO.C,R4*%
X279680000Y-121330000D03*
X280700000Y-121330000D03*
%TD*%
D11*
%TO.C,TP12*%
X263515500Y-146400000D03*
%TD*%
D13*
%TO.C,C10*%
X300130000Y-73590000D03*
X301090000Y-73590000D03*
%TD*%
D38*
%TO.C,CN2*%
X285230000Y-71860000D03*
D39*
X285230000Y-69860000D03*
X283230000Y-71860000D03*
X283230000Y-69860000D03*
X281230000Y-71860000D03*
X281230000Y-69860000D03*
X279230000Y-71860000D03*
X279230000Y-69860000D03*
X277230000Y-71860000D03*
X277230000Y-69860000D03*
X275230000Y-71860000D03*
X275230000Y-69860000D03*
X273230000Y-71860000D03*
X273230000Y-69860000D03*
X271230000Y-71860000D03*
X271230000Y-69860000D03*
%TD*%
D27*
%TO.C,R83*%
X352700000Y-126390000D03*
X352700000Y-127410000D03*
%TD*%
D19*
%TO.C,R15*%
X287565000Y-81970000D03*
X289215000Y-81970000D03*
%TD*%
D30*
%TO.C,C102*%
X281079400Y-87268800D03*
X281079400Y-86308800D03*
%TD*%
D22*
%TO.C,R136*%
X328290000Y-84420000D03*
X329310000Y-84420000D03*
%TD*%
D10*
%TO.C,R8*%
X309000000Y-73750000D03*
X307980000Y-73750000D03*
%TD*%
D40*
%TO.C,Q2*%
X347520000Y-147217500D03*
X349420000Y-147217500D03*
X348470000Y-145342500D03*
%TD*%
D22*
%TO.C,R70*%
X355217800Y-142285000D03*
X356237800Y-142285000D03*
%TD*%
D10*
%TO.C,R140*%
X351100000Y-68340000D03*
X350080000Y-68340000D03*
%TD*%
%TO.C,R90*%
X352430000Y-148717500D03*
X351410000Y-148717500D03*
%TD*%
D41*
%TO.C,L2*%
X308410000Y-83580000D03*
X318610000Y-83580000D03*
%TD*%
D42*
%TO.C,R20*%
X295960800Y-77597000D03*
X294310800Y-77597000D03*
%TD*%
D11*
%TO.C,J10*%
X306340000Y-68160000D03*
D43*
X307610000Y-68160000D03*
X308880000Y-68160000D03*
X310150000Y-68160000D03*
%TD*%
D10*
%TO.C,R142*%
X346740000Y-78190000D03*
X345720000Y-78190000D03*
%TD*%
D44*
%TO.C,D4*%
X295935400Y-76073000D03*
X294360400Y-76073000D03*
%TD*%
D45*
%TO.C,D8*%
X332300000Y-136840000D03*
X332300000Y-134500000D03*
%TD*%
D26*
%TO.C,R105*%
X278940000Y-138060000D03*
X278940000Y-137040000D03*
%TD*%
D46*
%TO.C,U6*%
X356550000Y-146330000D03*
D47*
X356540000Y-147030000D03*
D48*
X357440000Y-147030000D03*
D49*
X357420000Y-146340000D03*
D50*
X356990000Y-146690000D03*
%TD*%
D51*
%TO.C,U37*%
X240450000Y-87277500D03*
X241400000Y-87277500D03*
X242350000Y-87277500D03*
X242350000Y-85002500D03*
X241400000Y-85002500D03*
X240450000Y-85002500D03*
%TD*%
D10*
%TO.C,R78*%
X349110000Y-134100000D03*
X348090000Y-134100000D03*
%TD*%
D21*
%TO.C,C83*%
X345290000Y-144150000D03*
X343740000Y-144150000D03*
%TD*%
D52*
%TO.C,R26*%
X335280000Y-143200000D03*
X334420000Y-143200000D03*
%TD*%
D10*
%TO.C,R88*%
X362800000Y-140260000D03*
X361780000Y-140260000D03*
%TD*%
D22*
%TO.C,R101*%
X296110000Y-135600000D03*
X297130000Y-135600000D03*
%TD*%
D10*
%TO.C,R75*%
X349110000Y-137100000D03*
X348090000Y-137100000D03*
%TD*%
D53*
%TO.C,Q3*%
X336957500Y-94710000D03*
X336957500Y-92810000D03*
X335082500Y-93760000D03*
%TD*%
D54*
%TO.C,D5*%
X373278300Y-99796600D03*
X374853300Y-99796600D03*
%TD*%
D22*
%TO.C,R132*%
X335547500Y-96010000D03*
X336567500Y-96010000D03*
%TD*%
D55*
%TO.C,U14*%
X361690000Y-141380000D03*
X361040000Y-141380000D03*
X360390000Y-141380000D03*
X360390000Y-143360000D03*
X361040000Y-143360000D03*
X361690000Y-143360000D03*
%TD*%
D34*
%TO.C,J8*%
X229710000Y-140208000D03*
D35*
X227170000Y-140208000D03*
X229710000Y-137668000D03*
X227170000Y-137668000D03*
X229710000Y-135128000D03*
X227170000Y-135128000D03*
X229710000Y-132588000D03*
X227170000Y-132588000D03*
X229710000Y-130048000D03*
X227170000Y-130048000D03*
X229710000Y-127508000D03*
X227170000Y-127508000D03*
X229710000Y-124968000D03*
X227170000Y-124968000D03*
X229710000Y-122428000D03*
X227170000Y-122428000D03*
X229710000Y-119888000D03*
X227170000Y-119888000D03*
X229710000Y-117348000D03*
X227170000Y-117348000D03*
X229710000Y-114808000D03*
X227170000Y-114808000D03*
X229710000Y-112268000D03*
X227170000Y-112268000D03*
X229710000Y-109728000D03*
X227170000Y-109728000D03*
X229710000Y-107188000D03*
X227170000Y-107188000D03*
X229710000Y-104648000D03*
X227170000Y-104648000D03*
X229710000Y-102108000D03*
X227170000Y-102108000D03*
X229710000Y-99568000D03*
X227170000Y-99568000D03*
X229710000Y-97028000D03*
X227170000Y-97028000D03*
X229710000Y-94488000D03*
X227170000Y-94488000D03*
X229710000Y-91948000D03*
X227170000Y-91948000D03*
X229710000Y-89408000D03*
X227170000Y-89408000D03*
X229710000Y-86868000D03*
X227170000Y-86868000D03*
X229710000Y-84328000D03*
X227170000Y-84328000D03*
X229710000Y-81788000D03*
X227170000Y-81788000D03*
X229710000Y-79248000D03*
X227170000Y-79248000D03*
X229710000Y-76708000D03*
X227170000Y-76708000D03*
%TD*%
D56*
%TO.C,U33*%
X237675000Y-148655000D03*
X237675000Y-147385000D03*
X237675000Y-146115000D03*
X237675000Y-144845000D03*
X232725000Y-144845000D03*
X232725000Y-146115000D03*
X232725000Y-147385000D03*
X232725000Y-148655000D03*
%TD*%
D11*
%TO.C,TP20*%
X384540000Y-90445000D03*
%TD*%
D10*
%TO.C,R151*%
X363470000Y-80810000D03*
X362450000Y-80810000D03*
%TD*%
D33*
%TO.C,C23*%
X310300000Y-75250000D03*
X312200000Y-75250000D03*
%TD*%
D57*
%TO.C,C2*%
X271860000Y-91045000D03*
X271860000Y-89495000D03*
%TD*%
D58*
%TO.C,T2*%
X367210000Y-138515000D03*
X369750000Y-137245000D03*
X367210000Y-135975000D03*
X369750000Y-134705000D03*
X367210000Y-133435000D03*
X369750000Y-132165000D03*
X367210000Y-130895000D03*
X369750000Y-129625000D03*
X367210000Y-128355000D03*
X369750000Y-127085000D03*
D59*
X380180000Y-139425000D03*
X380180000Y-136885000D03*
X380180000Y-128715000D03*
X380180000Y-126175000D03*
D60*
X373050000Y-140545000D03*
X373050000Y-125055000D03*
%TD*%
D13*
%TO.C,C135*%
X261870000Y-85990000D03*
X262830000Y-85990000D03*
%TD*%
D61*
%TO.C,U12*%
X290066367Y-113120150D03*
X288796367Y-113120150D03*
X287526367Y-113120150D03*
X286256367Y-113120150D03*
X286256367Y-118820150D03*
X287526367Y-118820150D03*
X288796367Y-118820150D03*
X290066367Y-118820150D03*
D62*
X288161367Y-115970150D03*
%TD*%
D52*
%TO.C,R40*%
X334420000Y-139600000D03*
X335280000Y-139600000D03*
%TD*%
D10*
%TO.C,R154*%
X235650000Y-143545000D03*
X234630000Y-143545000D03*
%TD*%
D13*
%TO.C,C22*%
X308000000Y-71850000D03*
X308960000Y-71850000D03*
%TD*%
D29*
%TO.C,C46*%
X259955000Y-135860000D03*
X259955000Y-137410000D03*
%TD*%
D13*
%TO.C,C136*%
X261410000Y-81900000D03*
X262370000Y-81900000D03*
%TD*%
D27*
%TO.C,R16*%
X361530000Y-146770000D03*
X361530000Y-147790000D03*
%TD*%
D22*
%TO.C,R137*%
X328290000Y-85360000D03*
X329310000Y-85360000D03*
%TD*%
D63*
%TO.C,RN3*%
X362290000Y-76450000D03*
X362290000Y-76950000D03*
X362290000Y-77450000D03*
X362290000Y-77950000D03*
X362290000Y-78450000D03*
X362290000Y-78950000D03*
X362290000Y-79450000D03*
X362290000Y-79950000D03*
X363710000Y-79950000D03*
X363710000Y-79450000D03*
X363710000Y-78950000D03*
X363710000Y-78450000D03*
X363710000Y-77950000D03*
X363710000Y-77450000D03*
X363710000Y-76950000D03*
X363710000Y-76450000D03*
%TD*%
D11*
%TO.C,TP4*%
X324320000Y-146200000D03*
%TD*%
D26*
%TO.C,R107*%
X244720000Y-104919200D03*
X244720000Y-103899200D03*
%TD*%
D38*
%TO.C,CN3*%
X265730000Y-71700000D03*
D39*
X265730000Y-69700000D03*
X263730000Y-71700000D03*
X263730000Y-69700000D03*
X261730000Y-71700000D03*
X261730000Y-69700000D03*
X259730000Y-71700000D03*
X259730000Y-69700000D03*
X257730000Y-71700000D03*
X257730000Y-69700000D03*
X255730000Y-71700000D03*
X255730000Y-69700000D03*
X253730000Y-71700000D03*
X253730000Y-69700000D03*
X251730000Y-71700000D03*
X251730000Y-69700000D03*
%TD*%
D22*
%TO.C,R124*%
X237630000Y-135080000D03*
X238650000Y-135080000D03*
%TD*%
D11*
%TO.C,TP2*%
X334850000Y-144850000D03*
%TD*%
D27*
%TO.C,R121*%
X233810000Y-115380000D03*
X233810000Y-116400000D03*
%TD*%
D26*
%TO.C,R81*%
X358140800Y-142312400D03*
X358140800Y-141292400D03*
%TD*%
D64*
%TO.C,C43*%
X328300000Y-135650000D03*
X328300000Y-136750000D03*
%TD*%
D65*
%TO.C,C137*%
X257990000Y-79720000D03*
X257990000Y-81620000D03*
%TD*%
D21*
%TO.C,C3*%
X270365000Y-90990000D03*
X268815000Y-90990000D03*
%TD*%
D52*
%TO.C,R31*%
X324750000Y-144600000D03*
X323890000Y-144600000D03*
%TD*%
D66*
%TO.C,U7*%
X326737500Y-138850000D03*
X326737500Y-139500000D03*
X326737500Y-140150000D03*
X326737500Y-140800000D03*
X326737500Y-141450000D03*
X326737500Y-142100000D03*
X326737500Y-142750000D03*
X332462500Y-142750000D03*
X332462500Y-142100000D03*
X332462500Y-141450000D03*
X332462500Y-140800000D03*
X332462500Y-140150000D03*
X332462500Y-139500000D03*
X332462500Y-138850000D03*
%TD*%
D31*
%TO.C,R28*%
X327950000Y-144650000D03*
X327950000Y-145510000D03*
%TD*%
D32*
%TO.C,C18*%
X307980000Y-75790000D03*
X307020000Y-75790000D03*
%TD*%
D26*
%TO.C,R148*%
X350210000Y-88570000D03*
X350210000Y-87550000D03*
%TD*%
D67*
%TO.C,SW4*%
X334970000Y-84180000D03*
X334970000Y-76560000D03*
%TD*%
D22*
%TO.C,R100*%
X296110000Y-136570000D03*
X297130000Y-136570000D03*
%TD*%
D68*
%TO.C,U38*%
X247505000Y-81120000D03*
X247505000Y-80470000D03*
X247505000Y-79820000D03*
X247505000Y-79170000D03*
X245230000Y-79170000D03*
X245230000Y-79820000D03*
X245230000Y-80470000D03*
X245230000Y-81120000D03*
%TD*%
D22*
%TO.C,R120*%
X277580000Y-77440000D03*
X278600000Y-77440000D03*
%TD*%
D69*
%TO.C,Y2*%
X342500000Y-77335000D03*
X342500000Y-75135000D03*
X340800000Y-75135000D03*
X340800000Y-77335000D03*
%TD*%
D10*
%TO.C,R143*%
X346760000Y-76710000D03*
X345740000Y-76710000D03*
%TD*%
D70*
%TO.C,D10*%
X336620000Y-90460000D03*
X336620000Y-87160000D03*
%TD*%
D68*
%TO.C,U21*%
X375260000Y-98235000D03*
X375260000Y-97585000D03*
X375260000Y-96935000D03*
X375260000Y-96285000D03*
X372985000Y-96285000D03*
X372985000Y-96935000D03*
X372985000Y-97585000D03*
X372985000Y-98235000D03*
%TD*%
D71*
%TO.C,U32*%
X348250000Y-75950000D03*
X348250000Y-76450000D03*
X348250000Y-76950000D03*
X348250000Y-77450000D03*
X348250000Y-77950000D03*
X348250000Y-78450000D03*
X348250000Y-78950000D03*
X348250000Y-79450000D03*
X348250000Y-79950000D03*
X348250000Y-80450000D03*
X348250000Y-80950000D03*
X348250000Y-81450000D03*
X348250000Y-81950000D03*
X348250000Y-82450000D03*
X348250000Y-82950000D03*
X348250000Y-83450000D03*
D72*
X350050000Y-85250000D03*
X350550000Y-85250000D03*
X351050000Y-85250000D03*
X351550000Y-85250000D03*
X352050000Y-85250000D03*
X352550000Y-85250000D03*
X353050000Y-85250000D03*
X353550000Y-85250000D03*
X354050000Y-85250000D03*
X354550000Y-85250000D03*
X355050000Y-85250000D03*
X355550000Y-85250000D03*
X356050000Y-85250000D03*
X356550000Y-85250000D03*
X357050000Y-85250000D03*
X357550000Y-85250000D03*
D71*
X359350000Y-83450000D03*
X359350000Y-82950000D03*
X359350000Y-82450000D03*
X359350000Y-81950000D03*
X359350000Y-81450000D03*
X359350000Y-80950000D03*
X359350000Y-80450000D03*
X359350000Y-79950000D03*
X359350000Y-79450000D03*
X359350000Y-78950000D03*
X359350000Y-78450000D03*
X359350000Y-77950000D03*
X359350000Y-77450000D03*
X359350000Y-76950000D03*
X359350000Y-76450000D03*
X359350000Y-75950000D03*
D72*
X357550000Y-74150000D03*
X357050000Y-74150000D03*
X356550000Y-74150000D03*
X356050000Y-74150000D03*
X355550000Y-74150000D03*
X355050000Y-74150000D03*
X354550000Y-74150000D03*
X354050000Y-74150000D03*
X353550000Y-74150000D03*
X353050000Y-74150000D03*
X352550000Y-74150000D03*
X352050000Y-74150000D03*
X351550000Y-74150000D03*
X351050000Y-74150000D03*
X350550000Y-74150000D03*
X350050000Y-74150000D03*
%TD*%
D30*
%TO.C,C101*%
X284542202Y-90320000D03*
X284542202Y-89360000D03*
%TD*%
D28*
%TO.C,C12*%
X300000000Y-72370000D03*
X301550000Y-72370000D03*
%TD*%
D27*
%TO.C,R131*%
X345070000Y-86900000D03*
X345070000Y-87920000D03*
%TD*%
D73*
%TO.C,JP1*%
X335100000Y-136750000D03*
D74*
X335100000Y-135450000D03*
%TD*%
D26*
%TO.C,R146*%
X348210000Y-88570000D03*
X348210000Y-87550000D03*
%TD*%
D10*
%TO.C,R49*%
X269315500Y-142495000D03*
X268295500Y-142495000D03*
%TD*%
D75*
%TO.C,RN2*%
X358050000Y-87390000D03*
X357550000Y-87390000D03*
X357050000Y-87390000D03*
X356550000Y-87390000D03*
X356050000Y-87390000D03*
X355550000Y-87390000D03*
X355050000Y-87390000D03*
X354550000Y-87390000D03*
X354550000Y-88810000D03*
X355050000Y-88810000D03*
X355550000Y-88810000D03*
X356050000Y-88810000D03*
X356550000Y-88810000D03*
X357050000Y-88810000D03*
X357550000Y-88810000D03*
X358050000Y-88810000D03*
%TD*%
D22*
%TO.C,R10*%
X307980000Y-72810000D03*
X309000000Y-72810000D03*
%TD*%
D10*
%TO.C,R145*%
X346730000Y-81780000D03*
X345710000Y-81780000D03*
%TD*%
D22*
%TO.C,R160*%
X282170000Y-100660000D03*
X283190000Y-100660000D03*
%TD*%
D76*
%TO.C,R122*%
X379052500Y-98852500D03*
X379052500Y-95927500D03*
%TD*%
D77*
%TO.C,J4*%
X368950000Y-71725000D03*
D78*
X366410000Y-74265000D03*
X371490000Y-74265000D03*
X366410000Y-69185000D03*
X371490000Y-69185000D03*
%TD*%
D29*
%TO.C,C1*%
X271530000Y-100905000D03*
X271530000Y-102455000D03*
%TD*%
D27*
%TO.C,R152*%
X352210000Y-70300000D03*
X352210000Y-71320000D03*
%TD*%
D13*
%TO.C,C51*%
X290720000Y-120090000D03*
X291680000Y-120090000D03*
%TD*%
D46*
%TO.C,U5*%
X359900000Y-146880000D03*
D47*
X359890000Y-147580000D03*
D48*
X360790000Y-147580000D03*
D49*
X360770000Y-146890000D03*
D50*
X360340000Y-147240000D03*
%TD*%
D11*
%TO.C,TP22*%
X362500000Y-104500000D03*
%TD*%
D10*
%TO.C,R76*%
X349110000Y-138100000D03*
X348090000Y-138100000D03*
%TD*%
D25*
%TO.C,C96*%
X376652500Y-95900000D03*
X376652500Y-96860000D03*
%TD*%
D28*
%TO.C,C132*%
X241397500Y-81460000D03*
X242947500Y-81460000D03*
%TD*%
D31*
%TO.C,R29*%
X329150000Y-144650000D03*
X329150000Y-145510000D03*
%TD*%
D27*
%TO.C,R82*%
X357150200Y-141292400D03*
X357150200Y-142312400D03*
%TD*%
D10*
%TO.C,R47*%
X269315500Y-139955000D03*
X268295500Y-139955000D03*
%TD*%
D40*
%TO.C,Q1*%
X351020000Y-147217500D03*
X352920000Y-147217500D03*
X351970000Y-145342500D03*
%TD*%
D57*
%TO.C,C107*%
X342870000Y-87610000D03*
X342870000Y-86060000D03*
%TD*%
D13*
%TO.C,C92*%
X276881000Y-75205000D03*
X277841000Y-75205000D03*
%TD*%
D57*
%TO.C,C116*%
X344550000Y-78510000D03*
X344550000Y-76960000D03*
%TD*%
D30*
%TO.C,C49*%
X292678250Y-116824967D03*
X292678250Y-115864967D03*
%TD*%
D64*
%TO.C,C42*%
X329600000Y-135650000D03*
X329600000Y-136750000D03*
%TD*%
D22*
%TO.C,R79*%
X358962599Y-130935000D03*
X359982599Y-130935000D03*
%TD*%
D29*
%TO.C,C98*%
X235908400Y-95390200D03*
X235908400Y-96940200D03*
%TD*%
D79*
%TO.C,J2*%
X288845000Y-145264000D03*
X297495000Y-145264000D03*
D80*
X297495000Y-149444000D03*
X288845000Y-149444000D03*
D81*
X289820000Y-144496000D03*
X290620000Y-144496000D03*
X291920000Y-144496000D03*
X292920000Y-144496000D03*
X293420000Y-144496000D03*
X294419500Y-144496000D03*
X295720000Y-144496000D03*
X296520000Y-144496000D03*
X296220000Y-144496000D03*
X295420000Y-144496000D03*
X294920000Y-144496000D03*
X293920000Y-144496000D03*
X292420000Y-144496000D03*
X291420000Y-144496000D03*
X290920000Y-144496000D03*
X290120000Y-144496000D03*
%TD*%
D32*
%TO.C,C27*%
X361580000Y-145890000D03*
X360620000Y-145890000D03*
%TD*%
D82*
%TO.C,U25*%
X241883200Y-135795600D03*
X241883200Y-136295600D03*
X241883200Y-136795600D03*
X241883200Y-137295600D03*
D83*
X242395700Y-137308100D03*
X242895700Y-137308100D03*
D82*
X243408200Y-137295600D03*
X243408200Y-136795600D03*
X243408200Y-136295600D03*
X243408200Y-135795600D03*
D83*
X242895700Y-135783100D03*
X242395700Y-135783100D03*
%TD*%
D84*
%TO.C,U35*%
X355139988Y-111897500D03*
X355139988Y-112847500D03*
X355139988Y-113797500D03*
X357414988Y-113797500D03*
X357414988Y-112847500D03*
X357414988Y-111897500D03*
%TD*%
D85*
%TO.C,Y1*%
X355372599Y-124985000D03*
X357572599Y-124985000D03*
X357572599Y-123385000D03*
X355372599Y-123385000D03*
%TD*%
D52*
%TO.C,R35*%
X324750000Y-139650000D03*
X323890000Y-139650000D03*
%TD*%
D26*
%TO.C,R147*%
X349210000Y-88570000D03*
X349210000Y-87550000D03*
%TD*%
D10*
%TO.C,R44*%
X257265500Y-141240000D03*
X256245500Y-141240000D03*
%TD*%
D86*
%TO.C,R157*%
X237718500Y-82260750D03*
X233781500Y-82260750D03*
%TD*%
D22*
%TO.C,R116*%
X277590000Y-76170000D03*
X278610000Y-76170000D03*
%TD*%
D52*
%TO.C,R39*%
X334420000Y-142000000D03*
X335280000Y-142000000D03*
%TD*%
D51*
%TO.C,U31*%
X304360000Y-140675000D03*
X305310000Y-140675000D03*
X306260000Y-140675000D03*
X306260000Y-138400000D03*
X305310000Y-138400000D03*
X304360000Y-138400000D03*
%TD*%
D11*
%TO.C,J11*%
X296440000Y-68510000D03*
D43*
X297710000Y-68510000D03*
X298980000Y-68510000D03*
X300250000Y-68510000D03*
%TD*%
D52*
%TO.C,R32*%
X323890000Y-137250000D03*
X324750000Y-137250000D03*
%TD*%
D29*
%TO.C,C4*%
X270030000Y-100895000D03*
X270030000Y-102445000D03*
%TD*%
D10*
%TO.C,R134*%
X303070000Y-142080000D03*
X302050000Y-142080000D03*
%TD*%
D25*
%TO.C,C45*%
X258725000Y-135550000D03*
X258725000Y-136510000D03*
%TD*%
D28*
%TO.C,C70*%
X363960000Y-149470000D03*
X365510000Y-149470000D03*
%TD*%
D22*
%TO.C,R63*%
X288820000Y-120100000D03*
X289840000Y-120100000D03*
%TD*%
D31*
%TO.C,R38*%
X330800000Y-136900000D03*
X330800000Y-136040000D03*
%TD*%
D87*
%TO.C,U28*%
X345870000Y-89610000D03*
X344370000Y-89610000D03*
X342870000Y-89610000D03*
X341370000Y-89610000D03*
D88*
X343620000Y-95910000D03*
%TD*%
D10*
%TO.C,R133*%
X334630000Y-92660000D03*
X333610000Y-92660000D03*
%TD*%
D25*
%TO.C,C126*%
X239410000Y-146165000D03*
X239410000Y-147125000D03*
%TD*%
D22*
%TO.C,R62*%
X281490000Y-120150000D03*
X282510000Y-120150000D03*
%TD*%
D61*
%TO.C,U11*%
X282748967Y-113166750D03*
X281478967Y-113166750D03*
X280208967Y-113166750D03*
X278938967Y-113166750D03*
X278938967Y-118866750D03*
X280208967Y-118866750D03*
X281478967Y-118866750D03*
X282748967Y-118866750D03*
D62*
X280843967Y-116016750D03*
%TD*%
D58*
%TO.C,T1*%
X367210000Y-119915000D03*
X369750000Y-118645000D03*
X367210000Y-117375000D03*
X369750000Y-116105000D03*
X367210000Y-114835000D03*
X369750000Y-113565000D03*
X367210000Y-112295000D03*
X369750000Y-111025000D03*
X367210000Y-109755000D03*
X369750000Y-108485000D03*
D59*
X380180000Y-120825000D03*
X380180000Y-118285000D03*
X380180000Y-110115000D03*
X380180000Y-107575000D03*
D60*
X373050000Y-121945000D03*
X373050000Y-106455000D03*
%TD*%
D22*
%TO.C,R141*%
X348230000Y-69560000D03*
X349250000Y-69560000D03*
%TD*%
D21*
%TO.C,C79*%
X349345000Y-127710000D03*
X347795000Y-127710000D03*
%TD*%
D89*
%TO.C,C39*%
X318068750Y-134150000D03*
D90*
X312968750Y-134150000D03*
%TD*%
D11*
%TO.C,TP3*%
X324320000Y-148200000D03*
%TD*%
D10*
%TO.C,R125*%
X233900000Y-136080000D03*
X232880000Y-136080000D03*
%TD*%
%TO.C,R150*%
X363470000Y-81810000D03*
X362450000Y-81810000D03*
%TD*%
D75*
%TO.C,RN4*%
X353050000Y-71520000D03*
X353550000Y-71520000D03*
X354050000Y-71520000D03*
X354550000Y-71520000D03*
X355050000Y-71520000D03*
X355550000Y-71520000D03*
X356050000Y-71520000D03*
X356550000Y-71520000D03*
X356550000Y-70100000D03*
X356050000Y-70100000D03*
X355550000Y-70100000D03*
X355050000Y-70100000D03*
X354550000Y-70100000D03*
X354050000Y-70100000D03*
X353550000Y-70100000D03*
X353050000Y-70100000D03*
%TD*%
D91*
%TO.C,R13*%
X267055600Y-102488000D03*
X267055600Y-100838000D03*
%TD*%
D92*
%TO.C,R159*%
X253040000Y-82598500D03*
X253040000Y-78661500D03*
%TD*%
D93*
%TO.C,U22*%
X381780000Y-80695000D03*
X380680000Y-80695000D03*
X379580000Y-80695000D03*
X378480000Y-80695000D03*
X377380000Y-80695000D03*
X376280000Y-80695000D03*
X375180000Y-80695000D03*
X372180000Y-80695000D03*
X371080000Y-80695000D03*
X369980000Y-80695000D03*
X368880000Y-80695000D03*
X367780000Y-80695000D03*
X367780000Y-92895000D03*
X368880000Y-92895000D03*
X369980000Y-92895000D03*
X371080000Y-92895000D03*
X372180000Y-92895000D03*
X375180000Y-92895000D03*
X376280000Y-92895000D03*
X377380000Y-92895000D03*
X378480000Y-92895000D03*
X379580000Y-92895000D03*
X380680000Y-92895000D03*
X381780000Y-92895000D03*
%TD*%
D31*
%TO.C,R30*%
X330350000Y-145510000D03*
X330350000Y-144650000D03*
%TD*%
D21*
%TO.C,C134*%
X259835000Y-87110000D03*
X258285000Y-87110000D03*
%TD*%
D10*
%TO.C,R50*%
X269315500Y-143765000D03*
X268295500Y-143765000D03*
%TD*%
D94*
%TO.C,U13*%
X357942599Y-136935000D03*
X357942599Y-136435000D03*
X357942599Y-135935000D03*
X357942599Y-135435000D03*
X357942599Y-134935000D03*
X357942599Y-134435000D03*
X357942599Y-133935000D03*
X357942599Y-133435000D03*
X357942599Y-132935000D03*
X357942599Y-132435000D03*
X357942599Y-131935000D03*
X357942599Y-131435000D03*
D95*
X357222599Y-130715000D03*
X356722599Y-130715000D03*
X356222599Y-130715000D03*
X355722599Y-130715000D03*
X355222599Y-130715000D03*
X354722599Y-130715000D03*
X354222599Y-130715000D03*
X353722599Y-130715000D03*
X353222599Y-130715000D03*
X352722599Y-130715000D03*
X352222599Y-130715000D03*
X351722599Y-130715000D03*
D94*
X351002599Y-131435000D03*
X351002599Y-131935000D03*
X351002599Y-132435000D03*
X351002599Y-132935000D03*
X351002599Y-133435000D03*
X351002599Y-133935000D03*
X351002599Y-134435000D03*
X351002599Y-134935000D03*
X351002599Y-135435000D03*
X351002599Y-135935000D03*
X351002599Y-136435000D03*
X351002599Y-136935000D03*
D95*
X351722599Y-137655000D03*
X352222599Y-137655000D03*
X352722599Y-137655000D03*
X353222599Y-137655000D03*
X353722599Y-137655000D03*
X354222599Y-137655000D03*
X354722599Y-137655000D03*
X355222599Y-137655000D03*
X355722599Y-137655000D03*
X356222599Y-137655000D03*
X356722599Y-137655000D03*
X357222599Y-137655000D03*
D96*
X354472599Y-134185000D03*
%TD*%
D10*
%TO.C,R87*%
X357970000Y-140340000D03*
X356950000Y-140340000D03*
%TD*%
D52*
%TO.C,R37*%
X335280000Y-140800000D03*
X334420000Y-140800000D03*
%TD*%
D10*
%TO.C,R103*%
X291880000Y-143050000D03*
X290860000Y-143050000D03*
%TD*%
D26*
%TO.C,R106*%
X248330000Y-98479200D03*
X248330000Y-97459200D03*
%TD*%
D21*
%TO.C,C75*%
X345280000Y-147230000D03*
X343730000Y-147230000D03*
%TD*%
D11*
%TO.C,J22*%
X335725000Y-110730000D03*
D43*
X336995000Y-110730000D03*
X338265000Y-110730000D03*
X339535000Y-110730000D03*
%TD*%
D38*
%TO.C,CN4*%
X246350000Y-71610000D03*
D39*
X246350000Y-69610000D03*
X244350000Y-71610000D03*
X244350000Y-69610000D03*
X242350000Y-71610000D03*
X242350000Y-69610000D03*
X240350000Y-71610000D03*
X240350000Y-69610000D03*
X238350000Y-71610000D03*
X238350000Y-69610000D03*
X236350000Y-71610000D03*
X236350000Y-69610000D03*
X234350000Y-71610000D03*
X234350000Y-69610000D03*
X232350000Y-71610000D03*
X232350000Y-69610000D03*
%TD*%
D10*
%TO.C,R45*%
X257265500Y-142540000D03*
X256245500Y-142540000D03*
%TD*%
D25*
%TO.C,C139*%
X248890000Y-78770000D03*
X248890000Y-79730000D03*
%TD*%
D52*
%TO.C,R34*%
X323890000Y-138450000D03*
X324750000Y-138450000D03*
%TD*%
D28*
%TO.C,C128*%
X359827488Y-111567500D03*
X361377488Y-111567500D03*
%TD*%
D22*
%TO.C,R138*%
X348180000Y-68320000D03*
X349200000Y-68320000D03*
%TD*%
D21*
%TO.C,C74*%
X345275000Y-148800000D03*
X343725000Y-148800000D03*
%TD*%
D11*
%TO.C,TP10*%
X281820000Y-83180000D03*
%TD*%
D27*
%TO.C,R72*%
X354270000Y-138935000D03*
X354270000Y-139955000D03*
%TD*%
D11*
%TO.C,TP5*%
X324320000Y-135650000D03*
%TD*%
D79*
%TO.C,J5*%
X300765000Y-144896250D03*
X309415000Y-144896250D03*
D80*
X309415000Y-149076250D03*
X300765000Y-149076250D03*
D81*
X301740000Y-144128250D03*
X302540000Y-144128250D03*
X303840000Y-144128250D03*
X304840000Y-144128250D03*
X305340000Y-144128250D03*
X306339500Y-144128250D03*
X307640000Y-144128250D03*
X308440000Y-144128250D03*
X308140000Y-144128250D03*
X307340000Y-144128250D03*
X306840000Y-144128250D03*
X305840000Y-144128250D03*
X304340000Y-144128250D03*
X303340000Y-144128250D03*
X302840000Y-144128250D03*
X302040000Y-144128250D03*
%TD*%
D25*
%TO.C,C97*%
X237630000Y-136990000D03*
X237630000Y-137950000D03*
%TD*%
D68*
%TO.C,U34*%
X352727500Y-106690000D03*
X352727500Y-106040000D03*
X352727500Y-105390000D03*
X352727500Y-104740000D03*
X350452500Y-104740000D03*
X350452500Y-105390000D03*
X350452500Y-106040000D03*
X350452500Y-106690000D03*
%TD*%
D11*
%TO.C,TP11*%
X265525500Y-146400000D03*
%TD*%
D70*
%TO.C,D11*%
X334320000Y-90460000D03*
X334320000Y-87160000D03*
%TD*%
D92*
%TO.C,R126*%
X277419400Y-82830300D03*
X277419400Y-86767300D03*
%TD*%
D10*
%TO.C,R153*%
X232570000Y-149705000D03*
X231550000Y-149705000D03*
%TD*%
%TO.C,R17*%
X358470000Y-147780000D03*
X357450000Y-147780000D03*
%TD*%
D97*
%TO.C,J6*%
X237930000Y-142250000D03*
%TD*%
D57*
%TO.C,C5*%
X273420000Y-90875000D03*
X273420000Y-89325000D03*
%TD*%
D10*
%TO.C,R85*%
X349110000Y-141100000D03*
X348090000Y-141100000D03*
%TD*%
D31*
%TO.C,R27*%
X331550000Y-144650000D03*
X331550000Y-145510000D03*
%TD*%
D27*
%TO.C,R5*%
X290210000Y-100910000D03*
X290210000Y-101930000D03*
%TD*%
D10*
%TO.C,R73*%
X349110000Y-135100000D03*
X348090000Y-135100000D03*
%TD*%
D98*
%TO.C,D6*%
X318938750Y-129950000D03*
X316598750Y-129950000D03*
%TD*%
D38*
%TO.C,CN1*%
X242320000Y-95449200D03*
D39*
X240320000Y-95449200D03*
X242320000Y-97449200D03*
X240320000Y-97449200D03*
X242320000Y-99449200D03*
X240320000Y-99449200D03*
X242320000Y-101449200D03*
X240320000Y-101449200D03*
X242320000Y-103449200D03*
X240320000Y-103449200D03*
X242320000Y-105449200D03*
X240320000Y-105449200D03*
X242320000Y-107449200D03*
X240320000Y-107449200D03*
X242320000Y-109449200D03*
X240320000Y-109449200D03*
%TD*%
D30*
%TO.C,C48*%
X293182700Y-103973200D03*
X293182700Y-103013200D03*
%TD*%
%TO.C,C28*%
X358200000Y-146800000D03*
X358200000Y-145840000D03*
%TD*%
D99*
%TO.C,U2*%
X302952200Y-73549999D03*
X302952200Y-74050001D03*
X302952200Y-74550000D03*
X302952200Y-75049999D03*
X302952200Y-75550000D03*
X302952200Y-76050000D03*
X302952200Y-76550001D03*
X302952200Y-77050000D03*
X302952200Y-77549999D03*
X302952200Y-78050001D03*
D100*
X303649999Y-78746400D03*
D101*
X304400000Y-75800000D03*
D100*
X304150000Y-78746400D03*
X304650000Y-78746400D03*
X305150001Y-78746400D03*
D99*
X305847800Y-78050001D03*
X305847800Y-77549999D03*
X305847800Y-77050000D03*
X305847800Y-76550001D03*
X305847800Y-76050000D03*
X305847800Y-75550000D03*
X305847800Y-75049999D03*
X305847800Y-74550000D03*
X305847800Y-74050001D03*
X305847800Y-73549999D03*
D102*
X305151500Y-72838600D03*
D103*
X304651500Y-72833600D03*
D104*
X304150000Y-72833600D03*
D103*
X303651500Y-72833600D03*
%TD*%
D10*
%TO.C,R48*%
X269315500Y-141225000D03*
X268295500Y-141225000D03*
%TD*%
D105*
%TO.C,R25*%
X320768750Y-129950000D03*
X320768750Y-132875000D03*
%TD*%
D10*
%TO.C,R46*%
X257265500Y-143780000D03*
X256245500Y-143780000D03*
%TD*%
D106*
%TO.C,U27*%
X282484400Y-84968800D03*
X282484400Y-85618800D03*
X282484400Y-86268800D03*
X282484400Y-86918800D03*
X284759400Y-86918800D03*
X284759400Y-86268800D03*
X284759400Y-85618800D03*
X284759400Y-84968800D03*
%TD*%
D29*
%TO.C,C127*%
X353482488Y-111497500D03*
X353482488Y-113047500D03*
%TD*%
D44*
%TO.C,D2*%
X286117500Y-81970000D03*
X284542500Y-81970000D03*
%TD*%
D25*
%TO.C,C129*%
X354140000Y-104430000D03*
X354140000Y-105390000D03*
%TD*%
D22*
%TO.C,R139*%
X348230000Y-70820000D03*
X349250000Y-70820000D03*
%TD*%
D107*
%TO.C,U17*%
X248560000Y-99839200D03*
X248560000Y-101109200D03*
X248560000Y-102379200D03*
X248560000Y-103649200D03*
X248560000Y-104919200D03*
X248560000Y-106189200D03*
X248560000Y-107459200D03*
X248560000Y-108729200D03*
X255060000Y-108729200D03*
X255060000Y-107459200D03*
X255060000Y-106189200D03*
X255060000Y-104919200D03*
X255060000Y-103649200D03*
X255060000Y-102379200D03*
X255060000Y-101109200D03*
X255060000Y-99839200D03*
%TD*%
D32*
%TO.C,C133*%
X260110000Y-85900000D03*
X259150000Y-85900000D03*
%TD*%
D13*
%TO.C,C52*%
X354992599Y-126935000D03*
X355952599Y-126935000D03*
%TD*%
D25*
%TO.C,C100*%
X244358200Y-135775600D03*
X244358200Y-136735600D03*
%TD*%
D13*
%TO.C,C50*%
X283400000Y-120150000D03*
X284360000Y-120150000D03*
%TD*%
D108*
%TO.C,U24*%
X233408400Y-92315200D03*
X233408400Y-92815200D03*
X233408400Y-93315200D03*
X233408400Y-93815200D03*
D109*
X234170400Y-94077700D03*
X234670400Y-94077700D03*
X235170400Y-94077700D03*
D108*
X235932400Y-93815200D03*
X235932400Y-93315200D03*
X235932400Y-92815200D03*
X235932400Y-92315200D03*
D109*
X235170400Y-92052700D03*
X234670400Y-92052700D03*
X234170400Y-92052700D03*
%TD*%
D11*
%TO.C,J16*%
X290070000Y-68540000D03*
D43*
X291340000Y-68540000D03*
X292610000Y-68540000D03*
X293880000Y-68540000D03*
%TD*%
D13*
%TO.C,C131*%
X233780000Y-86040750D03*
X234740000Y-86040750D03*
%TD*%
D14*
%TO.C,D7*%
X326550000Y-146347500D03*
X326550000Y-144772500D03*
%TD*%
D110*
%TO.C,RN1*%
X352050000Y-87630000D03*
X352550000Y-87630000D03*
X353050000Y-87630000D03*
X353550000Y-87630000D03*
X353550000Y-88490000D03*
X353050000Y-88490000D03*
X352550000Y-88490000D03*
X352050000Y-88490000D03*
%TD*%
D111*
%TO.C,J21*%
X312695000Y-101245000D03*
D112*
X315235000Y-101245000D03*
X312695000Y-103785000D03*
X315235000Y-103785000D03*
%TD*%
D26*
%TO.C,R65*%
X287520000Y-111890000D03*
X287520000Y-110870000D03*
%TD*%
D89*
%TO.C,C37*%
X318068750Y-147450000D03*
D90*
X312968750Y-147450000D03*
%TD*%
D26*
%TO.C,R128*%
X336170000Y-76925000D03*
X336170000Y-75905000D03*
%TD*%
D30*
%TO.C,C33*%
X359150000Y-146880000D03*
X359150000Y-145920000D03*
%TD*%
D13*
%TO.C,C95*%
X380740000Y-94385000D03*
X381700000Y-94385000D03*
%TD*%
D27*
%TO.C,R127*%
X347070000Y-89200000D03*
X347070000Y-90220000D03*
%TD*%
D73*
%TO.C,JP2*%
X253800000Y-115389200D03*
D74*
X253800000Y-114089200D03*
%TD*%
D113*
%TO.C,U19*%
X269979000Y-74915000D03*
X269979000Y-76185000D03*
X269979000Y-77455000D03*
X269979000Y-78725000D03*
X275401000Y-78725000D03*
X275401000Y-77455000D03*
X275401000Y-76185000D03*
X275401000Y-74915000D03*
%TD*%
D21*
%TO.C,C82*%
X345290000Y-145650000D03*
X343740000Y-145650000D03*
%TD*%
D33*
%TO.C,C25*%
X310310000Y-77240000D03*
X312210000Y-77240000D03*
%TD*%
D30*
%TO.C,C87*%
X254830000Y-98819200D03*
X254830000Y-97859200D03*
%TD*%
D26*
%TO.C,R129*%
X346070000Y-87930000D03*
X346070000Y-86910000D03*
%TD*%
D22*
%TO.C,R161*%
X282170000Y-101630000D03*
X283190000Y-101630000D03*
%TD*%
D26*
%TO.C,R110*%
X232841800Y-138025600D03*
X232841800Y-137005600D03*
%TD*%
D30*
%TO.C,C109*%
X338870000Y-68915000D03*
X338870000Y-67955000D03*
%TD*%
D26*
%TO.C,R123*%
X368920000Y-78715000D03*
X368920000Y-77695000D03*
%TD*%
D114*
%TO.C,J1*%
X300158000Y-123339000D03*
X299658000Y-123339000D03*
X299158000Y-123339000D03*
X298658000Y-123339000D03*
X298158000Y-123339000D03*
X297658000Y-123339000D03*
X297158000Y-123339000D03*
X296658000Y-123339000D03*
X296158000Y-123339000D03*
X295658000Y-123339000D03*
X295158000Y-123339000D03*
X294658000Y-123339000D03*
X294158000Y-123339000D03*
X293658000Y-123339000D03*
X293158000Y-123339000D03*
X292658000Y-123339000D03*
X292158000Y-123339000D03*
X291658000Y-123339000D03*
X291158000Y-123339000D03*
X290658000Y-123339000D03*
X290158000Y-123339000D03*
X289658000Y-123339000D03*
X289158000Y-123339000D03*
X288658000Y-123339000D03*
X288158000Y-123339000D03*
X287658000Y-123339000D03*
X287158000Y-123339000D03*
X286658000Y-123339000D03*
X286158000Y-123339000D03*
X285658000Y-123339000D03*
X285158000Y-123339000D03*
X284658000Y-123339000D03*
X284158000Y-123339000D03*
X283658000Y-123339000D03*
X283158000Y-123339000D03*
X282658000Y-123339000D03*
X282158000Y-123339000D03*
X281658000Y-123339000D03*
X281158000Y-123339000D03*
X280658000Y-123339000D03*
X280158000Y-123339000D03*
X279658000Y-123339000D03*
X279158000Y-123339000D03*
X278658000Y-123339000D03*
X278158000Y-123339000D03*
X277658000Y-123339000D03*
X277158000Y-123339000D03*
X276658000Y-123339000D03*
X276158000Y-123339000D03*
X275658000Y-123339000D03*
X275158000Y-123339000D03*
X274658000Y-123339000D03*
X274158000Y-123339000D03*
X273658000Y-123339000D03*
X273158000Y-123339000D03*
X272658000Y-123339000D03*
X272158000Y-123339000D03*
X271658000Y-123339000D03*
X271158000Y-123339000D03*
X270658000Y-123339000D03*
X270158000Y-123339000D03*
X269658000Y-123339000D03*
X269158000Y-123339000D03*
X268658000Y-123339000D03*
X268158000Y-123339000D03*
X267658000Y-123339000D03*
X267158000Y-123339000D03*
X266658000Y-123339000D03*
X266158000Y-123339000D03*
X265658000Y-123339000D03*
X300158000Y-129511000D03*
X299658000Y-129511000D03*
X299158000Y-129511000D03*
X298658000Y-129511000D03*
X298158000Y-129511000D03*
X297658000Y-129511000D03*
X297158000Y-129511000D03*
X296658000Y-129511000D03*
X296158000Y-129511000D03*
X295658000Y-129511000D03*
X295158000Y-129511000D03*
X294658000Y-129511000D03*
X294158000Y-129511000D03*
X293658000Y-129511000D03*
X293158000Y-129511000D03*
X292658000Y-129511000D03*
X292158000Y-129511000D03*
X291658000Y-129511000D03*
X291158000Y-129511000D03*
X290658000Y-129511000D03*
X290158000Y-129511000D03*
X289658000Y-129511000D03*
X289158000Y-129511000D03*
X288658000Y-129511000D03*
X288158000Y-129511000D03*
X287658000Y-129511000D03*
X287158000Y-129511000D03*
X286658000Y-129511000D03*
X286158000Y-129511000D03*
X285658000Y-129511000D03*
X285158000Y-129511000D03*
X284658000Y-129511000D03*
X284158000Y-129511000D03*
X283658000Y-129511000D03*
X283158000Y-129511000D03*
X282658000Y-129511000D03*
X282158000Y-129511000D03*
X281658000Y-129511000D03*
X281158000Y-129511000D03*
X280658000Y-129511000D03*
X280158000Y-129511000D03*
X279658000Y-129511000D03*
X279158000Y-129511000D03*
X278658000Y-129511000D03*
X278158000Y-129511000D03*
X277658000Y-129511000D03*
X277158000Y-129511000D03*
X276658000Y-129511000D03*
X276158000Y-129511000D03*
X275658000Y-129511000D03*
X275158000Y-129511000D03*
X274658000Y-129511000D03*
X274158000Y-129511000D03*
X273658000Y-129511000D03*
X273158000Y-129511000D03*
X272658000Y-129511000D03*
X272158000Y-129511000D03*
X271658000Y-129511000D03*
X271158000Y-129511000D03*
X270658000Y-129511000D03*
X270158000Y-129511000D03*
X269658000Y-129511000D03*
X269158000Y-129511000D03*
X268658000Y-129511000D03*
X268158000Y-129511000D03*
X267658000Y-129511000D03*
X267158000Y-129511000D03*
X266658000Y-129511000D03*
X266158000Y-129511000D03*
X265658000Y-129511000D03*
X304610000Y-92940000D03*
X304110000Y-92940000D03*
X303610000Y-92940000D03*
X303110000Y-92940000D03*
X302610000Y-92940000D03*
X302110000Y-92940000D03*
X301610000Y-92940000D03*
X301110000Y-92940000D03*
X300610000Y-92940000D03*
X300110000Y-92940000D03*
X299610000Y-92940000D03*
X299110000Y-92940000D03*
X298610000Y-92940000D03*
X298110000Y-92940000D03*
X297610000Y-92940000D03*
X297110000Y-92940000D03*
X296610000Y-92940000D03*
X296110000Y-92940000D03*
X295610000Y-92940000D03*
X295110000Y-92940000D03*
X294610000Y-92940000D03*
X294110000Y-92940000D03*
X293610000Y-92940000D03*
X293110000Y-92940000D03*
X292610000Y-92940000D03*
X292110000Y-92940000D03*
X291610000Y-92940000D03*
X291110000Y-92940000D03*
X290610000Y-92940000D03*
X290110000Y-92940000D03*
X289610000Y-92940000D03*
X289110000Y-92940000D03*
X288610000Y-92940000D03*
X288110000Y-92940000D03*
X287610000Y-92940000D03*
X287110000Y-92940000D03*
X286610000Y-92940000D03*
X286110000Y-92940000D03*
X285610000Y-92940000D03*
X285110000Y-92940000D03*
X284610000Y-92940000D03*
X284110000Y-92940000D03*
X283610000Y-92940000D03*
X283110000Y-92940000D03*
X282610000Y-92940000D03*
X282110000Y-92940000D03*
X281610000Y-92940000D03*
X281110000Y-92940000D03*
X280610000Y-92940000D03*
X280110000Y-92940000D03*
X279610000Y-92940000D03*
X279110000Y-92940000D03*
X278610000Y-92940000D03*
X278110000Y-92940000D03*
X277610000Y-92940000D03*
X277110000Y-92940000D03*
X276610000Y-92940000D03*
X276110000Y-92940000D03*
X275610000Y-92940000D03*
X275110000Y-92940000D03*
X274610000Y-92940000D03*
X274110000Y-92940000D03*
X273610000Y-92940000D03*
X273110000Y-92940000D03*
X272610000Y-92940000D03*
X272110000Y-92940000D03*
X271610000Y-92940000D03*
X271110000Y-92940000D03*
X270610000Y-92940000D03*
X270110000Y-92940000D03*
X304610000Y-99112000D03*
X304110000Y-99112000D03*
X303610000Y-99112000D03*
X303110000Y-99112000D03*
X302610000Y-99112000D03*
X302110000Y-99112000D03*
X301610000Y-99112000D03*
X301110000Y-99112000D03*
X300610000Y-99112000D03*
X300110000Y-99112000D03*
X299610000Y-99112000D03*
X299110000Y-99112000D03*
X298610000Y-99112000D03*
X298110000Y-99112000D03*
X297610000Y-99112000D03*
X297110000Y-99112000D03*
X296610000Y-99112000D03*
X296110000Y-99112000D03*
X295610000Y-99112000D03*
X295110000Y-99112000D03*
X294610000Y-99112000D03*
X294110000Y-99112000D03*
X293610000Y-99112000D03*
X293110000Y-99112000D03*
X292610000Y-99112000D03*
X292110000Y-99112000D03*
X291610000Y-99112000D03*
X291110000Y-99112000D03*
X290610000Y-99112000D03*
X290110000Y-99112000D03*
X289610000Y-99112000D03*
X289110000Y-99112000D03*
X288610000Y-99112000D03*
X288110000Y-99112000D03*
X287610000Y-99112000D03*
X287110000Y-99112000D03*
X286610000Y-99112000D03*
X286110000Y-99112000D03*
X285610000Y-99112000D03*
X285110000Y-99112000D03*
X284610000Y-99112000D03*
X284110000Y-99112000D03*
X283610000Y-99112000D03*
X283110000Y-99112000D03*
X282610000Y-99112000D03*
X282110000Y-99112000D03*
X281610000Y-99112000D03*
X281110000Y-99112000D03*
X280610000Y-99112000D03*
X280110000Y-99112000D03*
X279610000Y-99112000D03*
X279110000Y-99112000D03*
X278610000Y-99112000D03*
X278110000Y-99112000D03*
X277610000Y-99112000D03*
X277110000Y-99112000D03*
X276610000Y-99112000D03*
X276110000Y-99112000D03*
X275610000Y-99112000D03*
X275110000Y-99112000D03*
X274610000Y-99112000D03*
X274110000Y-99112000D03*
X273610000Y-99112000D03*
X273110000Y-99112000D03*
X272610000Y-99112000D03*
X272110000Y-99112000D03*
X271610000Y-99112000D03*
X271110000Y-99112000D03*
X270610000Y-99112000D03*
X270110000Y-99112000D03*
%TD*%
D73*
%TO.C,JP3*%
X249000000Y-115339200D03*
D74*
X249000000Y-114039200D03*
%TD*%
D115*
%TO.C,J3*%
X275060000Y-144032500D03*
D116*
X277560000Y-144032500D03*
X279560000Y-144032500D03*
X282060000Y-144032500D03*
D117*
X271990000Y-146742500D03*
X285130000Y-146742500D03*
%TD*%
D64*
%TO.C,C44*%
X332750000Y-145900000D03*
X332750000Y-144800000D03*
%TD*%
D26*
%TO.C,R119*%
X233820000Y-105400000D03*
X233820000Y-104380000D03*
%TD*%
D25*
%TO.C,C93*%
X237680000Y-113650000D03*
X237680000Y-114610000D03*
%TD*%
D11*
%TO.C,TP18*%
X363290000Y-107350000D03*
%TD*%
%TO.C,J17*%
X289220000Y-71360000D03*
D43*
X289220000Y-72630000D03*
X289220000Y-73900000D03*
X289220000Y-75170000D03*
%TD*%
D11*
%TO.C,TP14*%
X259505500Y-146400000D03*
%TD*%
D10*
%TO.C,R7*%
X301110000Y-74530000D03*
X300090000Y-74530000D03*
%TD*%
D26*
%TO.C,R104*%
X277930000Y-138050000D03*
X277930000Y-137030000D03*
%TD*%
D22*
%TO.C,R68*%
X355217800Y-141319800D03*
X356237800Y-141319800D03*
%TD*%
D30*
%TO.C,C86*%
X253880000Y-98419200D03*
X253880000Y-97459200D03*
%TD*%
D89*
%TO.C,C38*%
X318068750Y-140800000D03*
D90*
X312968750Y-140800000D03*
%TD*%
D28*
%TO.C,C67*%
X363960000Y-147960000D03*
X365510000Y-147960000D03*
%TD*%
D13*
%TO.C,C90*%
X276881000Y-74275000D03*
X277841000Y-74275000D03*
%TD*%
D32*
%TO.C,C53*%
X357952599Y-126935000D03*
X356992599Y-126935000D03*
%TD*%
D22*
%TO.C,R156*%
X358752488Y-112777500D03*
X359772488Y-112777500D03*
%TD*%
D26*
%TO.C,R64*%
X280200000Y-111930000D03*
X280200000Y-110910000D03*
%TD*%
D29*
%TO.C,C115*%
X344550000Y-73960000D03*
X344550000Y-75510000D03*
%TD*%
D118*
%TO.C,U29*%
X330070000Y-87910000D03*
D119*
X329020000Y-88460000D03*
X329020000Y-88960000D03*
X329020000Y-89460000D03*
X329020000Y-89960000D03*
X329020000Y-90460000D03*
X329020000Y-90960000D03*
D118*
X330070000Y-91510000D03*
X330570000Y-91510000D03*
D119*
X331620000Y-90960000D03*
X331620000Y-90460000D03*
X331620000Y-89960000D03*
X331620000Y-89460000D03*
X331620000Y-88960000D03*
X331620000Y-88460000D03*
D118*
X330570000Y-87910000D03*
D120*
X330320000Y-89710000D03*
%TD*%
D28*
%TO.C,C99*%
X242373200Y-138535600D03*
X243923200Y-138535600D03*
%TD*%
D121*
%TO.C,U26*%
X286914702Y-90810000D03*
X286914702Y-90310000D03*
X286914702Y-89810000D03*
X285489702Y-89810000D03*
X285489702Y-90310000D03*
X285489702Y-90810000D03*
%TD*%
D10*
%TO.C,R77*%
X349120000Y-140100000D03*
X348100000Y-140100000D03*
%TD*%
D13*
%TO.C,C34*%
X356320000Y-145600000D03*
X357280000Y-145600000D03*
%TD*%
D92*
%TO.C,R155*%
X358400000Y-108739550D03*
X358400000Y-104802550D03*
%TD*%
D122*
%TO.C,U23*%
X235090000Y-135170000D03*
X235090000Y-136070000D03*
X235090000Y-136970000D03*
X235090000Y-137870000D03*
X236390000Y-137870000D03*
X236390000Y-136970000D03*
X236390000Y-136070000D03*
X236390000Y-135170000D03*
%TD*%
D52*
%TO.C,R41*%
X335280000Y-138400000D03*
X334420000Y-138400000D03*
%TD*%
D26*
%TO.C,R86*%
X359300000Y-142310000D03*
X359300000Y-141290000D03*
%TD*%
D123*
%TO.C,U30*%
X346030000Y-71470000D03*
X346030000Y-70190000D03*
X346030000Y-68930000D03*
X346030000Y-67660000D03*
X340490000Y-67660000D03*
X340490000Y-68930000D03*
X340490000Y-70190000D03*
X340490000Y-71470000D03*
%TD*%
D65*
%TO.C,C138*%
X259960000Y-79720000D03*
X259960000Y-81620000D03*
%TD*%
D22*
%TO.C,R135*%
X307150000Y-142230000D03*
X308170000Y-142230000D03*
%TD*%
D57*
%TO.C,C103*%
X341370000Y-87610000D03*
X341370000Y-86060000D03*
%TD*%
D124*
%TO.C,R71*%
X355560099Y-128185000D03*
X357385099Y-128185000D03*
%TD*%
D11*
%TO.C,TP1*%
X281432000Y-88823800D03*
%TD*%
D26*
%TO.C,R158*%
X241402500Y-83660000D03*
X241402500Y-82640000D03*
%TD*%
D10*
%TO.C,R43*%
X257265500Y-139990000D03*
X256245500Y-139990000D03*
%TD*%
%TO.C,R144*%
X346720000Y-82760000D03*
X345700000Y-82760000D03*
%TD*%
D125*
%TO.C,SW1*%
X294800000Y-85200000D03*
X287180000Y-85200000D03*
%TD*%
D52*
%TO.C,R33*%
X324750000Y-140850000D03*
X323890000Y-140850000D03*
%TD*%
D27*
%TO.C,R117*%
X235090000Y-115360000D03*
X235090000Y-116380000D03*
%TD*%
D126*
%TO.C,U9*%
X304690500Y-110508000D03*
X304690500Y-109238000D03*
X304690500Y-107968000D03*
X304690500Y-106698000D03*
X304690500Y-105428000D03*
X304690500Y-104158000D03*
X304690500Y-102888000D03*
X304690500Y-101618000D03*
X295189500Y-101618000D03*
X295189500Y-102888000D03*
X295189500Y-104158000D03*
X295189500Y-105428000D03*
X295189500Y-106698000D03*
X295189500Y-107968000D03*
X295189500Y-109238000D03*
X295189500Y-110508000D03*
%TD*%
D10*
%TO.C,R118*%
X267760000Y-77440000D03*
X266740000Y-77440000D03*
%TD*%
D11*
%TO.C,TP19*%
X362510000Y-123550000D03*
%TD*%
D22*
%TO.C,R130*%
X335150000Y-74970000D03*
X336170000Y-74970000D03*
%TD*%
D127*
%TO.C,U20*%
X236365000Y-107589000D03*
X235095000Y-107589000D03*
X233825000Y-107589000D03*
X232555000Y-107589000D03*
X232555000Y-113011000D03*
X233825000Y-113011000D03*
X235095000Y-113011000D03*
X236365000Y-113011000D03*
%TD*%
D17*
%TO.C,U3*%
X272948400Y-87198200D03*
X272948400Y-86098202D03*
%TD*%
M02*
