%TF.GenerationSoftware,KiCad,Pcbnew,10.0.1*%
%TF.CreationDate,2026-08-12T13:20:25-07:00*%
%TF.ProjectId,CADENCE i.MX8X Carrier Board rev1,43414445-4e43-4452-9069-2e4d58385820,rev?*%
%TF.SameCoordinates,Original*%
%TF.FileFunction,Paste,Bot*%
%TF.FilePolarity,Positive*%
%FSLAX46Y46*%
G04 Gerber Fmt 4.6, Leading zero omitted, Abs format (unit mm)*
G04 Created by KiCad (PCBNEW 10.0.1) date 2026-08-12 13:20:25*
%MOMM*%
%LPD*%
G01*
G04 APERTURE LIST*
G04 Aperture macros list*
%AMRoundRect*
0 Rectangle with rounded corners*
0 $1 Rounding radius*
0 $2 $3 $4 $5 $6 $7 $8 $9 X,Y pos of 4 corners*
0 Add a 4 corners polygon primitive as box body*
4,1,4,$2,$3,$4,$5,$6,$7,$8,$9,$2,$3,0*
0 Add four circle primitives for the rounded corners*
1,1,$1+$1,$2,$3*
1,1,$1+$1,$4,$5*
1,1,$1+$1,$6,$7*
1,1,$1+$1,$8,$9*
0 Add four rect primitives between the rounded corners*
20,1,$1+$1,$2,$3,$4,$5,0*
20,1,$1+$1,$4,$5,$6,$7,0*
20,1,$1+$1,$6,$7,$8,$9,0*
20,1,$1+$1,$8,$9,$2,$3,0*%
G04 Aperture macros list end*
%ADD10C,0.000000*%
%ADD11C,0.010000*%
%ADD12RoundRect,0.140000X-0.170000X0.140000X-0.170000X-0.140000X0.170000X-0.140000X0.170000X0.140000X0*%
%ADD13RoundRect,0.225000X-0.225000X-0.250000X0.225000X-0.250000X0.225000X0.250000X-0.225000X0.250000X0*%
%ADD14RoundRect,0.135000X0.135000X0.185000X-0.135000X0.185000X-0.135000X-0.185000X0.135000X-0.185000X0*%
%ADD15RoundRect,0.225000X0.225000X0.250000X-0.225000X0.250000X-0.225000X-0.250000X0.225000X-0.250000X0*%
%ADD16RoundRect,0.140000X0.140000X0.170000X-0.140000X0.170000X-0.140000X-0.170000X0.140000X-0.170000X0*%
%ADD17RoundRect,0.135000X-0.135000X-0.185000X0.135000X-0.185000X0.135000X0.185000X-0.135000X0.185000X0*%
%ADD18RoundRect,0.135000X-0.185000X0.135000X-0.185000X-0.135000X0.185000X-0.135000X0.185000X0.135000X0*%
%ADD19R,0.499999X0.249999*%
%ADD20R,0.900001X1.599999*%
%ADD21RoundRect,0.150000X-0.150000X0.512500X-0.150000X-0.512500X0.150000X-0.512500X0.150000X0.512500X0*%
%ADD22RoundRect,0.140000X0.170000X-0.140000X0.170000X0.140000X-0.170000X0.140000X-0.170000X-0.140000X0*%
%ADD23RoundRect,0.135000X0.185000X-0.135000X0.185000X0.135000X-0.185000X0.135000X-0.185000X-0.135000X0*%
%ADD24RoundRect,0.200000X-0.275000X0.200000X-0.275000X-0.200000X0.275000X-0.200000X0.275000X0.200000X0*%
%ADD25RoundRect,0.140000X-0.140000X-0.170000X0.140000X-0.170000X0.140000X0.170000X-0.140000X0.170000X0*%
%ADD26R,5.500000X1.430000*%
%ADD27RoundRect,0.218750X-0.218750X-0.256250X0.218750X-0.256250X0.218750X0.256250X-0.218750X0.256250X0*%
%ADD28RoundRect,0.250000X-0.475000X0.250000X-0.475000X-0.250000X0.475000X-0.250000X0.475000X0.250000X0*%
%ADD29R,0.600000X1.100000*%
%ADD30RoundRect,0.225000X-0.250000X0.225000X-0.250000X-0.225000X0.250000X-0.225000X0.250000X0.225000X0*%
%ADD31R,3.200000X6.400000*%
%ADD32C,10.000000*%
%ADD33R,1.528000X0.650000*%
%ADD34RoundRect,0.150000X0.150000X-0.512500X0.150000X0.512500X-0.150000X0.512500X-0.150000X-0.512500X0*%
%ADD35RoundRect,0.250000X-0.250000X-0.475000X0.250000X-0.475000X0.250000X0.475000X-0.250000X0.475000X0*%
%ADD36RoundRect,0.225000X0.250000X-0.225000X0.250000X0.225000X-0.250000X0.225000X-0.250000X-0.225000X0*%
%ADD37R,6.400000X3.200000*%
%ADD38R,0.420000X0.600000*%
%ADD39C,0.200000*%
%ADD40RoundRect,0.218750X0.218750X0.256250X-0.218750X0.256250X-0.218750X-0.256250X0.218750X-0.256250X0*%
%ADD41R,0.700000X1.400000*%
%ADD42R,1.200000X0.800000*%
%ADD43R,0.700000X1.200000*%
%ADD44R,1.200000X1.200000*%
%ADD45R,1.200000X3.200000*%
%ADD46R,1.000000X1.400000*%
%ADD47R,1.000000X1.100000*%
%ADD48R,2.000000X0.700000*%
%ADD49R,1.050000X0.450000*%
%ADD50R,1.380000X1.130000*%
%ADD51R,2.400000X3.200000*%
%ADD52R,0.254000X0.812800*%
%ADD53R,0.792800X0.254000*%
%ADD54R,4.800600X1.752600*%
%ADD55R,0.792800X0.256999*%
%ADD56R,0.742800X0.256999*%
%ADD57R,0.752800X0.254000*%
%ADD58R,0.762800X0.254000*%
%ADD59R,0.772800X0.256998*%
G04 APERTURE END LIST*
D10*
%TO.C,U3*%
G36*
X273358961Y-85849140D02*
G01*
X273368153Y-85851929D01*
X273376624Y-85856458D01*
X273384048Y-85862551D01*
X273390142Y-85869975D01*
X273394670Y-85878446D01*
X273397459Y-85887639D01*
X273398402Y-85897199D01*
X273398402Y-86499200D01*
X273397459Y-86508760D01*
X273394670Y-86517952D01*
X273390142Y-86526423D01*
X273384048Y-86533848D01*
X273376624Y-86539941D01*
X273368153Y-86544470D01*
X273358961Y-86547259D01*
X273349400Y-86548199D01*
X272547400Y-86548199D01*
X272537839Y-86547259D01*
X272528647Y-86544470D01*
X272520176Y-86539941D01*
X272512752Y-86533848D01*
X272506658Y-86526423D01*
X272502130Y-86517952D01*
X272499341Y-86508760D01*
X272498398Y-86499200D01*
X272498398Y-85897199D01*
X272499341Y-85887639D01*
X272502130Y-85878446D01*
X272506658Y-85869975D01*
X272512752Y-85862551D01*
X272520176Y-85856458D01*
X272528647Y-85851929D01*
X272537839Y-85849140D01*
X272547400Y-85848198D01*
X273349400Y-85848198D01*
X273358961Y-85849140D01*
G37*
G36*
X273358961Y-86749141D02*
G01*
X273368153Y-86751930D01*
X273376624Y-86756458D01*
X273384048Y-86762552D01*
X273390142Y-86769976D01*
X273394670Y-86778447D01*
X273397459Y-86787639D01*
X273398402Y-86797200D01*
X273398402Y-87399200D01*
X273397459Y-87408761D01*
X273394670Y-87417953D01*
X273390142Y-87426424D01*
X273384048Y-87433848D01*
X273376624Y-87439942D01*
X273368153Y-87444471D01*
X273358961Y-87447260D01*
X273349400Y-87448199D01*
X272547400Y-87448199D01*
X272537839Y-87447260D01*
X272528647Y-87444471D01*
X272520176Y-87439942D01*
X272512752Y-87433848D01*
X272506658Y-87426424D01*
X272502130Y-87417953D01*
X272499341Y-87408761D01*
X272498398Y-87399200D01*
X272498398Y-86797200D01*
X272499341Y-86787639D01*
X272502130Y-86778447D01*
X272506658Y-86769976D01*
X272512752Y-86762552D01*
X272520176Y-86756458D01*
X272528647Y-86751930D01*
X272537839Y-86749141D01*
X272547400Y-86748198D01*
X273349400Y-86748198D01*
X273358961Y-86749141D01*
G37*
%TO.C,BT1*%
G36*
X314080000Y-70950000D02*
G01*
X314080000Y-77330000D01*
X310880000Y-77330000D01*
X310880000Y-70930000D01*
X314080000Y-70930000D01*
X314080000Y-70950000D01*
G37*
G36*
X337580000Y-70950000D02*
G01*
X337580000Y-77330000D01*
X334380000Y-77330000D01*
X334380000Y-70930000D01*
X337580000Y-70930000D01*
X337580000Y-70950000D01*
G37*
%TO.C,BT2*%
G36*
X380136000Y-77668000D02*
G01*
X380116000Y-77668000D01*
X373736000Y-77668000D01*
X373736000Y-74468000D01*
X380136000Y-74468000D01*
X380136000Y-77668000D01*
G37*
G36*
X380136000Y-101168000D02*
G01*
X380116000Y-101168000D01*
X373736000Y-101168000D01*
X373736000Y-97968000D01*
X380136000Y-97968000D01*
X380136000Y-101168000D01*
G37*
D11*
%TO.C,Card1*%
X267150000Y-149250000D02*
X265150000Y-149250000D01*
X265150000Y-148750000D01*
X265500000Y-148750000D01*
X265650000Y-148600000D01*
X265650000Y-147350000D01*
X267150000Y-147350000D01*
X267150000Y-149250000D01*
G36*
X267150000Y-149250000D02*
G01*
X265150000Y-149250000D01*
X265150000Y-148750000D01*
X265500000Y-148750000D01*
X265650000Y-148600000D01*
X265650000Y-147350000D01*
X267150000Y-147350000D01*
X267150000Y-149250000D01*
G37*
%TO.C,U4*%
X330261100Y-104059700D02*
X330501500Y-104059700D01*
X330501500Y-107190300D01*
X330261100Y-107190300D01*
X330261100Y-107544500D01*
X329008900Y-107544500D01*
X329008900Y-107190300D01*
X328768500Y-107190300D01*
X328768500Y-104059700D01*
X329008900Y-104059700D01*
X329008900Y-103705500D01*
X330261100Y-103705500D01*
X330261100Y-104059700D01*
G36*
X330261100Y-104059700D02*
G01*
X330501500Y-104059700D01*
X330501500Y-107190300D01*
X330261100Y-107190300D01*
X330261100Y-107544500D01*
X329008900Y-107544500D01*
X329008900Y-107190300D01*
X328768500Y-107190300D01*
X328768500Y-104059700D01*
X329008900Y-104059700D01*
X329008900Y-103705500D01*
X330261100Y-103705500D01*
X330261100Y-104059700D01*
G37*
D10*
%TO.C,U1*%
G36*
X293879900Y-79774100D02*
G01*
X292479700Y-79774100D01*
X292479700Y-78221500D01*
X293879900Y-78221500D01*
X293879900Y-79774100D01*
G37*
G36*
X295480100Y-79774100D02*
G01*
X294079900Y-79774100D01*
X294079900Y-78221500D01*
X295480100Y-78221500D01*
X295480100Y-79774100D01*
G37*
G36*
X297080300Y-79774100D02*
G01*
X295680100Y-79774100D01*
X295680100Y-78221500D01*
X297080300Y-78221500D01*
X297080300Y-79774100D01*
G37*
%TD*%
D12*
%TO.C,C125*%
X340330000Y-80202620D03*
X340330000Y-81162620D03*
%TD*%
D13*
%TO.C,C61*%
X358195000Y-132185000D03*
X359745000Y-132185000D03*
%TD*%
D14*
%TO.C,R51*%
X248160000Y-141210000D03*
X247140000Y-141210000D03*
%TD*%
D12*
%TO.C,C68*%
X351472599Y-138420000D03*
X351472599Y-139380000D03*
%TD*%
D15*
%TO.C,C60*%
X350845000Y-134935000D03*
X349295000Y-134935000D03*
%TD*%
D14*
%TO.C,R53*%
X248170000Y-138370000D03*
X247150000Y-138370000D03*
%TD*%
D16*
%TO.C,C62*%
X350987599Y-132185000D03*
X350027599Y-132185000D03*
%TD*%
D13*
%TO.C,C6*%
X294860000Y-76100000D03*
X296410000Y-76100000D03*
%TD*%
D16*
%TO.C,C88*%
X237580000Y-73640000D03*
X236620000Y-73640000D03*
%TD*%
D17*
%TO.C,R94*%
X381690000Y-120100000D03*
X382710000Y-120100000D03*
%TD*%
D18*
%TO.C,R2*%
X284390000Y-120360000D03*
X284390000Y-121380000D03*
%TD*%
D16*
%TO.C,C29*%
X324510000Y-105110000D03*
X323550000Y-105110000D03*
%TD*%
D19*
%TO.C,U3*%
X273898401Y-85898200D03*
X273898401Y-86398199D03*
X273898401Y-86898201D03*
X273898401Y-87398199D03*
X271998399Y-87398199D03*
X271998399Y-86898201D03*
X271998399Y-86398199D03*
X271998399Y-85898200D03*
D20*
X272948400Y-86648198D03*
%TD*%
D21*
%TO.C,U16*%
X277427500Y-139482500D03*
X278377500Y-139482500D03*
X279327500Y-139482500D03*
X279327500Y-141757500D03*
X278377500Y-141757500D03*
X277427500Y-141757500D03*
%TD*%
D13*
%TO.C,C31*%
X322075000Y-107330000D03*
X323625000Y-107330000D03*
%TD*%
D22*
%TO.C,C123*%
X348660000Y-77182380D03*
X348660000Y-76222380D03*
%TD*%
D14*
%TO.C,R60*%
X250900000Y-137430000D03*
X249880000Y-137430000D03*
%TD*%
D22*
%TO.C,C57*%
X351472599Y-129935000D03*
X351472599Y-128975000D03*
%TD*%
D23*
%TO.C,R11*%
X290630000Y-80420000D03*
X290630000Y-79400000D03*
%TD*%
D24*
%TO.C,R18*%
X340189800Y-101745600D03*
X340189800Y-103395600D03*
%TD*%
D25*
%TO.C,C113*%
X352360000Y-83360000D03*
X353320000Y-83360000D03*
%TD*%
D14*
%TO.C,R59*%
X251350000Y-139320000D03*
X250330000Y-139320000D03*
%TD*%
D18*
%TO.C,R23*%
X334840000Y-105320000D03*
X334840000Y-106340000D03*
%TD*%
D12*
%TO.C,C121*%
X350160000Y-76480000D03*
X350160000Y-77440000D03*
%TD*%
D25*
%TO.C,C32*%
X336800000Y-106800000D03*
X337760000Y-106800000D03*
%TD*%
D15*
%TO.C,C35*%
X338715000Y-104480000D03*
X337165000Y-104480000D03*
%TD*%
D18*
%TO.C,R22*%
X334840000Y-107180000D03*
X334840000Y-108200000D03*
%TD*%
D25*
%TO.C,C36*%
X331970000Y-109630000D03*
X332930000Y-109630000D03*
%TD*%
D12*
%TO.C,C69*%
X355472599Y-138420000D03*
X355472599Y-139380000D03*
%TD*%
D26*
%TO.C,L1*%
X301091600Y-82497800D03*
X301091600Y-86537800D03*
%TD*%
D17*
%TO.C,R97*%
X381590000Y-126900000D03*
X382610000Y-126900000D03*
%TD*%
D27*
%TO.C,D9*%
X267122500Y-93930000D03*
X268697500Y-93930000D03*
%TD*%
D28*
%TO.C,C24*%
X295740000Y-84620000D03*
X295740000Y-86520000D03*
%TD*%
D22*
%TO.C,C56*%
X355472599Y-129935000D03*
X355472599Y-128975000D03*
%TD*%
D17*
%TO.C,R24*%
X330080000Y-109620000D03*
X331100000Y-109620000D03*
%TD*%
D13*
%TO.C,C26*%
X322865000Y-103910000D03*
X324415000Y-103910000D03*
%TD*%
D15*
%TO.C,C65*%
X350845000Y-133435000D03*
X349295000Y-133435000D03*
%TD*%
D23*
%TO.C,R6*%
X293680000Y-75710000D03*
X293680000Y-74690000D03*
%TD*%
D29*
%TO.C,TV4*%
X365553963Y-131485000D03*
X364603963Y-131485000D03*
X363653963Y-131485000D03*
X363653963Y-128785000D03*
X364603963Y-128785000D03*
X365553963Y-128785000D03*
%TD*%
D14*
%TO.C,R96*%
X382610000Y-137700000D03*
X381590000Y-137700000D03*
%TD*%
D17*
%TO.C,R112*%
X246630000Y-76880000D03*
X247650000Y-76880000D03*
%TD*%
D30*
%TO.C,C110*%
X354710000Y-76285000D03*
X354710000Y-77835000D03*
%TD*%
D31*
%TO.C,BT1*%
X312480000Y-74130000D03*
X335980000Y-74130000D03*
D32*
X324230000Y-74130000D03*
%TD*%
D14*
%TO.C,R52*%
X248160000Y-140260000D03*
X247140000Y-140260000D03*
%TD*%
D33*
%TO.C,U18*%
X244491000Y-74315000D03*
X244491000Y-75585000D03*
X244491000Y-76855000D03*
X244491000Y-78125000D03*
X239069000Y-78125000D03*
X239069000Y-76855000D03*
X239069000Y-75585000D03*
X239069000Y-74315000D03*
%TD*%
D25*
%TO.C,C64*%
X357957599Y-130920000D03*
X358917599Y-130920000D03*
%TD*%
D22*
%TO.C,C15*%
X294840000Y-82520000D03*
X294840000Y-81560000D03*
%TD*%
D34*
%TO.C,U15*%
X294572500Y-140437500D03*
X293622500Y-140437500D03*
X292672500Y-140437500D03*
X292672500Y-138162500D03*
X293622500Y-138162500D03*
X294572500Y-138162500D03*
%TD*%
D14*
%TO.C,R109*%
X236840000Y-75600000D03*
X235820000Y-75600000D03*
%TD*%
D35*
%TO.C,C17*%
X268698400Y-85518201D03*
X270598400Y-85518201D03*
%TD*%
D14*
%TO.C,R55*%
X248160000Y-136460000D03*
X247140000Y-136460000D03*
%TD*%
D17*
%TO.C,R99*%
X381590000Y-127900000D03*
X382610000Y-127900000D03*
%TD*%
D14*
%TO.C,R19*%
X337780000Y-105840000D03*
X336760000Y-105840000D03*
%TD*%
D16*
%TO.C,C89*%
X237570000Y-74590000D03*
X236610000Y-74590000D03*
%TD*%
D12*
%TO.C,C16*%
X270888400Y-87078201D03*
X270888400Y-88038201D03*
%TD*%
D15*
%TO.C,C114*%
X356985000Y-79310000D03*
X355435000Y-79310000D03*
%TD*%
D36*
%TO.C,C54*%
X352722599Y-130695000D03*
X352722599Y-129145000D03*
%TD*%
D29*
%TO.C,TV2*%
X365650000Y-118750000D03*
X364700000Y-118750000D03*
X363750000Y-118750000D03*
X363750000Y-116050000D03*
X364700000Y-116050000D03*
X365650000Y-116050000D03*
%TD*%
D30*
%TO.C,C124*%
X341530000Y-80202620D03*
X341530000Y-81752620D03*
%TD*%
D14*
%TO.C,R61*%
X251355000Y-136470000D03*
X250335000Y-136470000D03*
%TD*%
D18*
%TO.C,R1*%
X285350000Y-120360000D03*
X285350000Y-121380000D03*
%TD*%
D13*
%TO.C,C71*%
X358195000Y-133685000D03*
X359745000Y-133685000D03*
%TD*%
D22*
%TO.C,C78*%
X357972599Y-129935000D03*
X357972599Y-128975000D03*
%TD*%
D37*
%TO.C,BT2*%
X376936000Y-76068000D03*
X376936000Y-99568000D03*
D32*
X376936000Y-87818000D03*
%TD*%
D38*
%TO.C,U41*%
X289050000Y-97120000D03*
X288400000Y-97120000D03*
X287750000Y-97120000D03*
X287750000Y-95220000D03*
X288400000Y-95220000D03*
X289050000Y-95220000D03*
%TD*%
D12*
%TO.C,C117*%
X353460000Y-76480000D03*
X353460000Y-77440000D03*
%TD*%
D29*
%TO.C,TV3*%
X365653963Y-137485000D03*
X364703963Y-137485000D03*
X363753963Y-137485000D03*
X363753963Y-134785000D03*
X364703963Y-134785000D03*
X365653963Y-134785000D03*
%TD*%
D28*
%TO.C,C20*%
X293690000Y-84610000D03*
X293690000Y-86510000D03*
%TD*%
D36*
%TO.C,C59*%
X354222599Y-130695000D03*
X354222599Y-129145000D03*
%TD*%
D39*
%TO.C,U8*%
X250320000Y-144700000D03*
X250820000Y-144700000D03*
X251320000Y-144700000D03*
X250320000Y-144200000D03*
X250820000Y-144200000D03*
X251320000Y-144200000D03*
%TD*%
D35*
%TO.C,C19*%
X268688400Y-83498201D03*
X270588400Y-83498201D03*
%TD*%
D40*
%TO.C,D3*%
X338665800Y-101757800D03*
X337090800Y-101757800D03*
%TD*%
D30*
%TO.C,C72*%
X352722599Y-137660000D03*
X352722599Y-139210000D03*
%TD*%
D16*
%TO.C,C63*%
X350987599Y-136185000D03*
X350027599Y-136185000D03*
%TD*%
D22*
%TO.C,C120*%
X350160000Y-80740000D03*
X350160000Y-79780000D03*
%TD*%
D14*
%TO.C,R58*%
X251350000Y-140270000D03*
X250330000Y-140270000D03*
%TD*%
D22*
%TO.C,C11*%
X275008400Y-85978201D03*
X275008400Y-85018201D03*
%TD*%
D41*
%TO.C,Card1*%
X262600000Y-133300000D03*
X261500000Y-133300000D03*
X260400000Y-133300000D03*
X259300000Y-133300000D03*
X258200000Y-133300000D03*
X257100000Y-133300000D03*
X256000000Y-133300000D03*
X254900000Y-133300000D03*
D42*
X253100000Y-143700000D03*
D43*
X253950000Y-133200000D03*
D44*
X253100000Y-137500000D03*
D45*
X253100000Y-147300000D03*
D46*
X264500000Y-133300000D03*
%TD*%
D16*
%TO.C,C30*%
X324500000Y-106050000D03*
X323540000Y-106050000D03*
%TD*%
D17*
%TO.C,R95*%
X381990000Y-109300000D03*
X383010000Y-109300000D03*
%TD*%
D38*
%TO.C,U40*%
X286140000Y-97060000D03*
X285490000Y-97060000D03*
X284840000Y-97060000D03*
X284840000Y-95160000D03*
X285490000Y-95160000D03*
X286140000Y-95160000D03*
%TD*%
D17*
%TO.C,R42*%
X267450000Y-95330000D03*
X268470000Y-95330000D03*
%TD*%
D24*
%TO.C,R9*%
X291960000Y-83020000D03*
X291960000Y-84670000D03*
%TD*%
D47*
%TO.C,SW2*%
X274740000Y-93930000D03*
X270140000Y-93930000D03*
X274740000Y-95530000D03*
X270140000Y-95530000D03*
D48*
X272440000Y-93210000D03*
%TD*%
D13*
%TO.C,C55*%
X358195000Y-136185000D03*
X359745000Y-136185000D03*
%TD*%
D16*
%TO.C,C119*%
X357260000Y-81450000D03*
X356300000Y-81450000D03*
%TD*%
D36*
%TO.C,C122*%
X347460000Y-77182380D03*
X347460000Y-75632380D03*
%TD*%
D18*
%TO.C,R14*%
X335780000Y-107210000D03*
X335780000Y-108230000D03*
%TD*%
D14*
%TO.C,R56*%
X251340000Y-142210000D03*
X250320000Y-142210000D03*
%TD*%
D12*
%TO.C,C81*%
X357972599Y-138420000D03*
X357972599Y-139380000D03*
%TD*%
D30*
%TO.C,C9*%
X291500000Y-74590000D03*
X291500000Y-76140000D03*
%TD*%
D18*
%TO.C,R3*%
X282890000Y-120380000D03*
X282890000Y-121400000D03*
%TD*%
D36*
%TO.C,C13*%
X276248400Y-85683201D03*
X276248400Y-84133201D03*
%TD*%
D49*
%TO.C,U4*%
X332410000Y-103350000D03*
X332410000Y-104000000D03*
X332410000Y-104650000D03*
X332410000Y-105300000D03*
X332410000Y-105950000D03*
X332410000Y-107250000D03*
X332410000Y-106600000D03*
X332410000Y-107900000D03*
X326860000Y-107900000D03*
X326860000Y-107250000D03*
X326860000Y-106600000D03*
X326860000Y-105300000D03*
X326860000Y-105950000D03*
X326860000Y-104650000D03*
X326860000Y-104000000D03*
X326860000Y-103350000D03*
X332410000Y-108550000D03*
X332410000Y-102700000D03*
X326860000Y-108550000D03*
X326860000Y-102700000D03*
%TD*%
D50*
%TO.C,L4*%
X345360000Y-75242380D03*
X345360000Y-77182380D03*
%TD*%
D14*
%TO.C,R92*%
X382710000Y-119100000D03*
X381690000Y-119100000D03*
%TD*%
D36*
%TO.C,C77*%
X356722599Y-130695000D03*
X356722599Y-129145000D03*
%TD*%
D17*
%TO.C,R111*%
X287790000Y-94240000D03*
X288810000Y-94240000D03*
%TD*%
D12*
%TO.C,C21*%
X290720000Y-83130000D03*
X290720000Y-84090000D03*
%TD*%
D25*
%TO.C,C58*%
X357920000Y-137435000D03*
X358880000Y-137435000D03*
%TD*%
D12*
%TO.C,C47*%
X249350000Y-144760000D03*
X249350000Y-145720000D03*
%TD*%
D50*
%TO.C,L5*%
X343630000Y-82142620D03*
X343630000Y-80202620D03*
%TD*%
D17*
%TO.C,R108*%
X246620000Y-75610000D03*
X247640000Y-75610000D03*
%TD*%
D30*
%TO.C,C118*%
X357210000Y-76260000D03*
X357210000Y-77810000D03*
%TD*%
D16*
%TO.C,C112*%
X356340000Y-83360000D03*
X355380000Y-83360000D03*
%TD*%
D25*
%TO.C,C85*%
X368800000Y-125650000D03*
X369760000Y-125650000D03*
%TD*%
D12*
%TO.C,C111*%
X355960000Y-76480000D03*
X355960000Y-77440000D03*
%TD*%
D29*
%TO.C,TV1*%
X365650000Y-113550000D03*
X364700000Y-113550000D03*
X363750000Y-113550000D03*
X363750000Y-110850000D03*
X364700000Y-110850000D03*
X365650000Y-110850000D03*
%TD*%
D17*
%TO.C,R93*%
X381990000Y-108300000D03*
X383010000Y-108300000D03*
%TD*%
D14*
%TO.C,R113*%
X236840000Y-76880000D03*
X235820000Y-76880000D03*
%TD*%
D16*
%TO.C,C84*%
X370720000Y-106890000D03*
X369760000Y-106890000D03*
%TD*%
D12*
%TO.C,C14*%
X275028400Y-87578201D03*
X275028400Y-88538201D03*
%TD*%
D14*
%TO.C,R57*%
X251350000Y-141230000D03*
X250330000Y-141230000D03*
%TD*%
D17*
%TO.C,R98*%
X381590000Y-138700000D03*
X382610000Y-138700000D03*
%TD*%
D51*
%TO.C,L3*%
X326400000Y-98550000D03*
X332400000Y-98550000D03*
%TD*%
D14*
%TO.C,R54*%
X248170000Y-137420000D03*
X247150000Y-137420000D03*
%TD*%
D30*
%TO.C,C80*%
X356722599Y-137660000D03*
X356722599Y-139210000D03*
%TD*%
%TO.C,C66*%
X354222599Y-137660000D03*
X354222599Y-139210000D03*
%TD*%
D25*
%TO.C,C73*%
X357920000Y-134935000D03*
X358880000Y-134935000D03*
%TD*%
D12*
%TO.C,C7*%
X292740000Y-74740000D03*
X292740000Y-75700000D03*
%TD*%
D52*
%TO.C,U1*%
X292529999Y-77550000D03*
X293030001Y-77550000D03*
X293530000Y-77550000D03*
X294029999Y-77550000D03*
X294530000Y-77550000D03*
X295030000Y-77550000D03*
X295530001Y-77550000D03*
X296030000Y-77550000D03*
X296529999Y-77550000D03*
X297030001Y-77550000D03*
D53*
X297736400Y-78247799D03*
D54*
X294780000Y-78997800D03*
D53*
X297736400Y-78747800D03*
X297736400Y-79247800D03*
D55*
X297736400Y-79749300D03*
D52*
X297030001Y-80445600D03*
X296529999Y-80445600D03*
X296030000Y-80445600D03*
X295530001Y-80445600D03*
X295030000Y-80445600D03*
X294530000Y-80445600D03*
X294029999Y-80445600D03*
X293530000Y-80445600D03*
X293030001Y-80445600D03*
X292529999Y-80445600D03*
D56*
X291798600Y-79749300D03*
D57*
X291803600Y-79247800D03*
D58*
X291808600Y-78747800D03*
D59*
X291813600Y-78249301D03*
%TD*%
M02*
