%TF.GenerationSoftware,KiCad,Pcbnew,10.0.3*%
%TF.CreationDate,2026-08-11T22:09:39-07:00*%
%TF.ProjectId,CADENCE i.MX8X Carrier Board rev1,43414445-4e43-4452-9069-2e4d58385820,rev?*%
%TF.SameCoordinates,Original*%
%TF.FileFunction,Soldermask,Bot*%
%TF.FilePolarity,Negative*%
%FSLAX46Y46*%
G04 Gerber Fmt 4.6, Leading zero omitted, Abs format (unit mm)*
G04 Created by KiCad (PCBNEW 10.0.3) date 2026-08-11 22:09:39*
%MOMM*%
%LPD*%
G01*
G04 APERTURE LIST*
G04 Aperture macros list*
%AMRoundRect*
0 Rectangle with rounded corners*
0 $1 Rounding radius*
0 $2 $3 $4 $5 $6 $7 $8 $9 X,Y pos of 4 corners*
0 Add a 4 corners polygon primitive as box body*
4,1,4,$2,$3,$4,$5,$6,$7,$8,$9,$2,$3,0*
0 Add four circle primitives for the rounded corners*
1,1,$1+$1,$2,$3*
1,1,$1+$1,$4,$5*
1,1,$1+$1,$6,$7*
1,1,$1+$1,$8,$9*
0 Add four rect primitives between the rounded corners*
20,1,$1+$1,$2,$3,$4,$5,0*
20,1,$1+$1,$4,$5,$6,$7,0*
20,1,$1+$1,$6,$7,$8,$9,0*
20,1,$1+$1,$8,$9,$2,$3,0*%
G04 Aperture macros list end*
%ADD10C,0.010000*%
%ADD11C,0.499999*%
%ADD12C,3.200000*%
%ADD13C,2.700000*%
%ADD14R,1.524000X1.524000*%
%ADD15C,1.524000*%
%ADD16R,1.400000X1.400000*%
%ADD17C,1.400000*%
%ADD18R,1.000000X1.000000*%
%ADD19C,1.000000*%
%ADD20C,3.250000*%
%ADD21C,1.612000*%
%ADD22C,1.749000*%
%ADD23C,2.604000*%
%ADD24C,2.300000*%
%ADD25C,2.500000*%
%ADD26O,1.200000X2.000000*%
%ADD27O,1.200000X1.800000*%
%ADD28R,0.850000X0.850000*%
%ADD29R,1.700000X1.700000*%
%ADD30C,1.700000*%
%ADD31C,1.016000*%
%ADD32RoundRect,0.102000X-0.714000X-0.714000X0.714000X-0.714000X0.714000X0.714000X-0.714000X0.714000X0*%
%ADD33C,1.632000*%
%ADD34C,3.520000*%
%ADD35RoundRect,0.140000X-0.170000X0.140000X-0.170000X-0.140000X0.170000X-0.140000X0.170000X0.140000X0*%
%ADD36RoundRect,0.225000X-0.225000X-0.250000X0.225000X-0.250000X0.225000X0.250000X-0.225000X0.250000X0*%
%ADD37RoundRect,0.135000X0.135000X0.185000X-0.135000X0.185000X-0.135000X-0.185000X0.135000X-0.185000X0*%
%ADD38RoundRect,0.225000X0.225000X0.250000X-0.225000X0.250000X-0.225000X-0.250000X0.225000X-0.250000X0*%
%ADD39RoundRect,0.140000X0.140000X0.170000X-0.140000X0.170000X-0.140000X-0.170000X0.140000X-0.170000X0*%
%ADD40RoundRect,0.135000X-0.135000X-0.185000X0.135000X-0.185000X0.135000X0.185000X-0.135000X0.185000X0*%
%ADD41RoundRect,0.135000X-0.185000X0.135000X-0.185000X-0.135000X0.185000X-0.135000X0.185000X0.135000X0*%
%ADD42R,0.499999X0.249999*%
%ADD43R,0.900001X1.599999*%
%ADD44RoundRect,0.150000X-0.150000X0.512500X-0.150000X-0.512500X0.150000X-0.512500X0.150000X0.512500X0*%
%ADD45RoundRect,0.140000X0.170000X-0.140000X0.170000X0.140000X-0.170000X0.140000X-0.170000X-0.140000X0*%
%ADD46RoundRect,0.135000X0.185000X-0.135000X0.185000X0.135000X-0.185000X0.135000X-0.185000X-0.135000X0*%
%ADD47RoundRect,0.200000X-0.275000X0.200000X-0.275000X-0.200000X0.275000X-0.200000X0.275000X0.200000X0*%
%ADD48RoundRect,0.140000X-0.140000X-0.170000X0.140000X-0.170000X0.140000X0.170000X-0.140000X0.170000X0*%
%ADD49R,5.500000X1.430000*%
%ADD50RoundRect,0.218750X-0.218750X-0.256250X0.218750X-0.256250X0.218750X0.256250X-0.218750X0.256250X0*%
%ADD51RoundRect,0.250000X-0.475000X0.250000X-0.475000X-0.250000X0.475000X-0.250000X0.475000X0.250000X0*%
%ADD52R,0.600000X1.100000*%
%ADD53RoundRect,0.225000X-0.250000X0.225000X-0.250000X-0.225000X0.250000X-0.225000X0.250000X0.225000X0*%
%ADD54R,3.200000X6.400000*%
%ADD55C,10.000000*%
%ADD56R,1.528000X0.650000*%
%ADD57RoundRect,0.150000X0.150000X-0.512500X0.150000X0.512500X-0.150000X0.512500X-0.150000X-0.512500X0*%
%ADD58RoundRect,0.250000X-0.250000X-0.475000X0.250000X-0.475000X0.250000X0.475000X-0.250000X0.475000X0*%
%ADD59RoundRect,0.225000X0.250000X-0.225000X0.250000X0.225000X-0.250000X0.225000X-0.250000X-0.225000X0*%
%ADD60R,6.400000X3.200000*%
%ADD61R,0.420000X0.600000*%
%ADD62C,0.200000*%
%ADD63RoundRect,0.218750X0.218750X0.256250X-0.218750X0.256250X-0.218750X-0.256250X0.218750X-0.256250X0*%
%ADD64RoundRect,0.102000X0.350000X0.700000X-0.350000X0.700000X-0.350000X-0.700000X0.350000X-0.700000X0*%
%ADD65RoundRect,0.102000X0.600000X0.400000X-0.600000X0.400000X-0.600000X-0.400000X0.600000X-0.400000X0*%
%ADD66RoundRect,0.102000X0.350000X0.600000X-0.350000X0.600000X-0.350000X-0.600000X0.350000X-0.600000X0*%
%ADD67RoundRect,0.102000X0.600000X0.600000X-0.600000X0.600000X-0.600000X-0.600000X0.600000X-0.600000X0*%
%ADD68RoundRect,0.102000X0.600000X1.600000X-0.600000X1.600000X-0.600000X-1.600000X0.600000X-1.600000X0*%
%ADD69RoundRect,0.102000X0.500000X0.700000X-0.500000X0.700000X-0.500000X-0.700000X0.500000X-0.700000X0*%
%ADD70R,1.000000X1.100000*%
%ADD71R,2.000000X0.700000*%
%ADD72RoundRect,0.050000X0.525000X0.225000X-0.525000X0.225000X-0.525000X-0.225000X0.525000X-0.225000X0*%
%ADD73R,1.380000X1.130000*%
%ADD74R,2.400000X3.200000*%
%ADD75R,0.254000X0.812800*%
%ADD76R,0.792800X0.254000*%
%ADD77R,4.800600X1.752600*%
%ADD78R,0.792800X0.256999*%
%ADD79R,0.742800X0.256999*%
%ADD80R,0.752800X0.254000*%
%ADD81R,0.762800X0.254000*%
%ADD82R,0.772800X0.256998*%
G04 APERTURE END LIST*
D10*
%TO.C,Card1*%
X267250000Y-147250000D02*
X265550000Y-147250000D01*
X265550000Y-148500000D01*
X265400000Y-148650000D01*
X265050000Y-148650000D01*
X265050000Y-149350000D01*
X267250000Y-149350000D01*
X267250000Y-147250000D01*
G36*
X267250000Y-149350000D02*
G01*
X265050000Y-149350000D01*
X265050000Y-148650000D01*
X265400000Y-148650000D01*
X265550000Y-148500000D01*
X265550000Y-147250000D01*
X267250000Y-147250000D01*
X267250000Y-149350000D01*
G37*
%TO.C,U4*%
X330725000Y-102490000D02*
X328545000Y-102490000D01*
X328545000Y-103050000D01*
X328165000Y-103050000D01*
X328165000Y-108200000D01*
X328545000Y-108200000D01*
X328545000Y-108760000D01*
X330725000Y-108760000D01*
X330725000Y-108200000D01*
X331105000Y-108200000D01*
X331105000Y-103050000D01*
X330725000Y-103050000D01*
X330725000Y-102490000D01*
G36*
X330725000Y-103050000D02*
G01*
X331105000Y-103050000D01*
X331105000Y-108200000D01*
X330725000Y-108200000D01*
X330725000Y-108760000D01*
X328545000Y-108760000D01*
X328545000Y-108200000D01*
X328165000Y-108200000D01*
X328165000Y-103050000D01*
X328545000Y-103050000D01*
X328545000Y-102490000D01*
X330725000Y-102490000D01*
X330725000Y-103050000D01*
G37*
%TD*%
D11*
%TO.C,U39*%
X260420000Y-83950000D03*
X261519998Y-83950000D03*
%TD*%
D12*
%TO.C,H1*%
X222120000Y-71620000D03*
%TD*%
D13*
%TO.C,H6*%
X306530000Y-128232000D03*
%TD*%
D14*
%TO.C,J9*%
X224630000Y-140208000D03*
D15*
X222090000Y-140208000D03*
X224630000Y-137668000D03*
X222090000Y-137668000D03*
X224630000Y-135128000D03*
X222090000Y-135128000D03*
X224630000Y-132588000D03*
X222090000Y-132588000D03*
X224630000Y-130048000D03*
X222090000Y-130048000D03*
X224630000Y-127508000D03*
X222090000Y-127508000D03*
X224630000Y-124968000D03*
X222090000Y-124968000D03*
X224630000Y-122428000D03*
X222090000Y-122428000D03*
X224630000Y-119888000D03*
X222090000Y-119888000D03*
X224630000Y-117348000D03*
X222090000Y-117348000D03*
X224630000Y-114808000D03*
X222090000Y-114808000D03*
X224630000Y-112268000D03*
X222090000Y-112268000D03*
X224630000Y-109728000D03*
X222090000Y-109728000D03*
X224630000Y-107188000D03*
X222090000Y-107188000D03*
X224630000Y-104648000D03*
X222090000Y-104648000D03*
X224630000Y-102108000D03*
X222090000Y-102108000D03*
X224630000Y-99568000D03*
X222090000Y-99568000D03*
X224630000Y-97028000D03*
X222090000Y-97028000D03*
X224630000Y-94488000D03*
X222090000Y-94488000D03*
X224630000Y-91948000D03*
X222090000Y-91948000D03*
X224630000Y-89408000D03*
X222090000Y-89408000D03*
X224630000Y-86868000D03*
X222090000Y-86868000D03*
X224630000Y-84328000D03*
X222090000Y-84328000D03*
X224630000Y-81788000D03*
X222090000Y-81788000D03*
X224630000Y-79248000D03*
X222090000Y-79248000D03*
X224630000Y-76708000D03*
X222090000Y-76708000D03*
%TD*%
D16*
%TO.C,CN2*%
X285230000Y-71860000D03*
D17*
X285230000Y-69860000D03*
X283230000Y-71860000D03*
X283230000Y-69860000D03*
X281230000Y-71860000D03*
X281230000Y-69860000D03*
X279230000Y-71860000D03*
X279230000Y-69860000D03*
X277230000Y-71860000D03*
X277230000Y-69860000D03*
X275230000Y-71860000D03*
X275230000Y-69860000D03*
X273230000Y-71860000D03*
X273230000Y-69860000D03*
X271230000Y-71860000D03*
X271230000Y-69860000D03*
%TD*%
D18*
%TO.C,J10*%
X306340000Y-68160000D03*
D19*
X307610000Y-68160000D03*
X308880000Y-68160000D03*
X310150000Y-68160000D03*
%TD*%
D14*
%TO.C,J8*%
X229710000Y-140208000D03*
D15*
X227170000Y-140208000D03*
X229710000Y-137668000D03*
X227170000Y-137668000D03*
X229710000Y-135128000D03*
X227170000Y-135128000D03*
X229710000Y-132588000D03*
X227170000Y-132588000D03*
X229710000Y-130048000D03*
X227170000Y-130048000D03*
X229710000Y-127508000D03*
X227170000Y-127508000D03*
X229710000Y-124968000D03*
X227170000Y-124968000D03*
X229710000Y-122428000D03*
X227170000Y-122428000D03*
X229710000Y-119888000D03*
X227170000Y-119888000D03*
X229710000Y-117348000D03*
X227170000Y-117348000D03*
X229710000Y-114808000D03*
X227170000Y-114808000D03*
X229710000Y-112268000D03*
X227170000Y-112268000D03*
X229710000Y-109728000D03*
X227170000Y-109728000D03*
X229710000Y-107188000D03*
X227170000Y-107188000D03*
X229710000Y-104648000D03*
X227170000Y-104648000D03*
X229710000Y-102108000D03*
X227170000Y-102108000D03*
X229710000Y-99568000D03*
X227170000Y-99568000D03*
X229710000Y-97028000D03*
X227170000Y-97028000D03*
X229710000Y-94488000D03*
X227170000Y-94488000D03*
X229710000Y-91948000D03*
X227170000Y-91948000D03*
X229710000Y-89408000D03*
X227170000Y-89408000D03*
X229710000Y-86868000D03*
X227170000Y-86868000D03*
X229710000Y-84328000D03*
X227170000Y-84328000D03*
X229710000Y-81788000D03*
X227170000Y-81788000D03*
X229710000Y-79248000D03*
X227170000Y-79248000D03*
X229710000Y-76708000D03*
X227170000Y-76708000D03*
%TD*%
D20*
%TO.C,T2*%
X376100000Y-138515000D03*
X376100000Y-127085000D03*
D21*
X367210000Y-138515000D03*
X369750000Y-137245000D03*
X367210000Y-135975000D03*
X369750000Y-134705000D03*
X367210000Y-133435000D03*
X369750000Y-132165000D03*
X367210000Y-130895000D03*
X369750000Y-129625000D03*
X367210000Y-128355000D03*
X369750000Y-127085000D03*
D22*
X380180000Y-139425000D03*
X380180000Y-136885000D03*
X380180000Y-128715000D03*
X380180000Y-126175000D03*
D23*
X373050000Y-140545000D03*
X373050000Y-125055000D03*
%TD*%
D12*
%TO.C,H3*%
X383032000Y-70612000D03*
%TD*%
D16*
%TO.C,CN3*%
X265730000Y-71700000D03*
D17*
X265730000Y-69700000D03*
X263730000Y-71700000D03*
X263730000Y-69700000D03*
X261730000Y-71700000D03*
X261730000Y-69700000D03*
X259730000Y-71700000D03*
X259730000Y-69700000D03*
X257730000Y-71700000D03*
X257730000Y-69700000D03*
X255730000Y-71700000D03*
X255730000Y-69700000D03*
X253730000Y-71700000D03*
X253730000Y-69700000D03*
X251730000Y-71700000D03*
X251730000Y-69700000D03*
%TD*%
D24*
%TO.C,J4*%
X368950000Y-71725000D03*
D25*
X366410000Y-74265000D03*
X371490000Y-74265000D03*
X366410000Y-69185000D03*
X371490000Y-69185000D03*
%TD*%
D12*
%TO.C,H4*%
X382524000Y-145796000D03*
%TD*%
D13*
%TO.C,H5*%
X262530000Y-94242000D03*
%TD*%
D26*
%TO.C,J2*%
X288845000Y-145264000D03*
X297495000Y-145264000D03*
D27*
X297495000Y-149444000D03*
X288845000Y-149444000D03*
%TD*%
D18*
%TO.C,J11*%
X296440000Y-68510000D03*
D19*
X297710000Y-68510000D03*
X298980000Y-68510000D03*
X300250000Y-68510000D03*
%TD*%
D20*
%TO.C,T1*%
X376100000Y-119915000D03*
X376100000Y-108485000D03*
D21*
X367210000Y-119915000D03*
X369750000Y-118645000D03*
X367210000Y-117375000D03*
X369750000Y-116105000D03*
X367210000Y-114835000D03*
X369750000Y-113565000D03*
X367210000Y-112295000D03*
X369750000Y-111025000D03*
X367210000Y-109755000D03*
X369750000Y-108485000D03*
D22*
X380180000Y-120825000D03*
X380180000Y-118285000D03*
X380180000Y-110115000D03*
X380180000Y-107575000D03*
D23*
X373050000Y-121945000D03*
X373050000Y-106455000D03*
%TD*%
D18*
%TO.C,J22*%
X335725000Y-110730000D03*
D19*
X336995000Y-110730000D03*
X338265000Y-110730000D03*
X339535000Y-110730000D03*
%TD*%
D16*
%TO.C,CN4*%
X246350000Y-71610000D03*
D17*
X246350000Y-69610000D03*
X244350000Y-71610000D03*
X244350000Y-69610000D03*
X242350000Y-71610000D03*
X242350000Y-69610000D03*
X240350000Y-71610000D03*
X240350000Y-69610000D03*
X238350000Y-71610000D03*
X238350000Y-69610000D03*
X236350000Y-71610000D03*
X236350000Y-69610000D03*
X234350000Y-71610000D03*
X234350000Y-69610000D03*
X232350000Y-71610000D03*
X232350000Y-69610000D03*
%TD*%
D26*
%TO.C,J5*%
X300765000Y-144896250D03*
X309415000Y-144896250D03*
D27*
X309415000Y-149076250D03*
X300765000Y-149076250D03*
%TD*%
D28*
%TO.C,J6*%
X237930000Y-142250000D03*
%TD*%
D16*
%TO.C,CN1*%
X242320000Y-95449200D03*
D17*
X240320000Y-95449200D03*
X242320000Y-97449200D03*
X240320000Y-97449200D03*
X242320000Y-99449200D03*
X240320000Y-99449200D03*
X242320000Y-101449200D03*
X240320000Y-101449200D03*
X242320000Y-103449200D03*
X240320000Y-103449200D03*
X242320000Y-105449200D03*
X240320000Y-105449200D03*
X242320000Y-107449200D03*
X240320000Y-107449200D03*
X242320000Y-109449200D03*
X240320000Y-109449200D03*
%TD*%
D18*
%TO.C,J16*%
X290070000Y-68540000D03*
D19*
X291340000Y-68540000D03*
X292610000Y-68540000D03*
X293880000Y-68540000D03*
%TD*%
D29*
%TO.C,J21*%
X312695000Y-101245000D03*
D30*
X315235000Y-101245000D03*
X312695000Y-103785000D03*
X315235000Y-103785000D03*
%TD*%
D31*
%TO.C,J1*%
X263672000Y-128457000D03*
X268124000Y-98058000D03*
X302144000Y-128457000D03*
X306596000Y-98058000D03*
%TD*%
D12*
%TO.C,H2*%
X222110000Y-145250000D03*
%TD*%
D32*
%TO.C,J3*%
X275060000Y-144032500D03*
D33*
X277560000Y-144032500D03*
X279560000Y-144032500D03*
X282060000Y-144032500D03*
D34*
X271990000Y-146742500D03*
X285130000Y-146742500D03*
%TD*%
D18*
%TO.C,J17*%
X289220000Y-71360000D03*
D19*
X289220000Y-72630000D03*
X289220000Y-73900000D03*
X289220000Y-75170000D03*
%TD*%
D35*
%TO.C,C125*%
X340330000Y-80202620D03*
X340330000Y-81162620D03*
%TD*%
D36*
%TO.C,C61*%
X358195000Y-132185000D03*
X359745000Y-132185000D03*
%TD*%
D37*
%TO.C,R51*%
X248160000Y-141210000D03*
X247140000Y-141210000D03*
%TD*%
D35*
%TO.C,C68*%
X351472599Y-138420000D03*
X351472599Y-139380000D03*
%TD*%
D38*
%TO.C,C60*%
X350845000Y-134935000D03*
X349295000Y-134935000D03*
%TD*%
D37*
%TO.C,R53*%
X248170000Y-138370000D03*
X247150000Y-138370000D03*
%TD*%
D39*
%TO.C,C62*%
X350987599Y-132185000D03*
X350027599Y-132185000D03*
%TD*%
D36*
%TO.C,C6*%
X294860000Y-76100000D03*
X296410000Y-76100000D03*
%TD*%
D39*
%TO.C,C88*%
X237580000Y-73640000D03*
X236620000Y-73640000D03*
%TD*%
D40*
%TO.C,R94*%
X381690000Y-120100000D03*
X382710000Y-120100000D03*
%TD*%
D41*
%TO.C,R2*%
X284390000Y-120360000D03*
X284390000Y-121380000D03*
%TD*%
D39*
%TO.C,C29*%
X324510000Y-105110000D03*
X323550000Y-105110000D03*
%TD*%
D42*
%TO.C,U3*%
X273898401Y-85898200D03*
X273898401Y-86398199D03*
X273898401Y-86898201D03*
X273898401Y-87398199D03*
X271998399Y-87398199D03*
X271998399Y-86898201D03*
X271998399Y-86398199D03*
X271998399Y-85898200D03*
D43*
X272948400Y-86648198D03*
D11*
X272948400Y-87198200D03*
X272948400Y-86098202D03*
%TD*%
D44*
%TO.C,U16*%
X277427500Y-139482500D03*
X278377500Y-139482500D03*
X279327500Y-139482500D03*
X279327500Y-141757500D03*
X278377500Y-141757500D03*
X277427500Y-141757500D03*
%TD*%
D36*
%TO.C,C31*%
X322075000Y-107330000D03*
X323625000Y-107330000D03*
%TD*%
D45*
%TO.C,C123*%
X348660000Y-77182380D03*
X348660000Y-76222380D03*
%TD*%
D37*
%TO.C,R60*%
X250900000Y-137430000D03*
X249880000Y-137430000D03*
%TD*%
D45*
%TO.C,C57*%
X351472599Y-129935000D03*
X351472599Y-128975000D03*
%TD*%
D46*
%TO.C,R11*%
X290630000Y-80420000D03*
X290630000Y-79400000D03*
%TD*%
D47*
%TO.C,R18*%
X340189800Y-101745600D03*
X340189800Y-103395600D03*
%TD*%
D48*
%TO.C,C113*%
X352360000Y-83360000D03*
X353320000Y-83360000D03*
%TD*%
D18*
%TO.C,TP9*%
X276490000Y-93950000D03*
%TD*%
D37*
%TO.C,R59*%
X251350000Y-139320000D03*
X250330000Y-139320000D03*
%TD*%
D41*
%TO.C,R23*%
X334840000Y-105320000D03*
X334840000Y-106340000D03*
%TD*%
D18*
%TO.C,TP16*%
X246620000Y-143720000D03*
%TD*%
D35*
%TO.C,C121*%
X350160000Y-76480000D03*
X350160000Y-77440000D03*
%TD*%
D48*
%TO.C,C32*%
X336800000Y-106800000D03*
X337760000Y-106800000D03*
%TD*%
D38*
%TO.C,C35*%
X338715000Y-104480000D03*
X337165000Y-104480000D03*
%TD*%
D41*
%TO.C,R22*%
X334840000Y-107180000D03*
X334840000Y-108200000D03*
%TD*%
D48*
%TO.C,C36*%
X331970000Y-109630000D03*
X332930000Y-109630000D03*
%TD*%
D35*
%TO.C,C69*%
X355472599Y-138420000D03*
X355472599Y-139380000D03*
%TD*%
D49*
%TO.C,L1*%
X301091600Y-82497800D03*
X301091600Y-86537800D03*
%TD*%
D40*
%TO.C,R97*%
X381590000Y-126900000D03*
X382610000Y-126900000D03*
%TD*%
D50*
%TO.C,D9*%
X267122500Y-93930000D03*
X268697500Y-93930000D03*
%TD*%
D51*
%TO.C,C24*%
X295740000Y-84620000D03*
X295740000Y-86520000D03*
%TD*%
D45*
%TO.C,C56*%
X355472599Y-129935000D03*
X355472599Y-128975000D03*
%TD*%
D40*
%TO.C,R24*%
X330080000Y-109620000D03*
X331100000Y-109620000D03*
%TD*%
D36*
%TO.C,C26*%
X322865000Y-103910000D03*
X324415000Y-103910000D03*
%TD*%
D38*
%TO.C,C65*%
X350845000Y-133435000D03*
X349295000Y-133435000D03*
%TD*%
D46*
%TO.C,R6*%
X293680000Y-75710000D03*
X293680000Y-74690000D03*
%TD*%
D52*
%TO.C,TV4*%
X365553963Y-131485000D03*
X364603963Y-131485000D03*
X363653963Y-131485000D03*
X363653963Y-128785000D03*
X364603963Y-128785000D03*
X365553963Y-128785000D03*
%TD*%
D37*
%TO.C,R96*%
X382610000Y-137700000D03*
X381590000Y-137700000D03*
%TD*%
D40*
%TO.C,R112*%
X246630000Y-76880000D03*
X247650000Y-76880000D03*
%TD*%
D53*
%TO.C,C110*%
X354710000Y-76285000D03*
X354710000Y-77835000D03*
%TD*%
D54*
%TO.C,BT1*%
X312480000Y-74130000D03*
X335980000Y-74130000D03*
D55*
X324230000Y-74130000D03*
%TD*%
D37*
%TO.C,R52*%
X248160000Y-140260000D03*
X247140000Y-140260000D03*
%TD*%
D56*
%TO.C,U18*%
X244491000Y-74315000D03*
X244491000Y-75585000D03*
X244491000Y-76855000D03*
X244491000Y-78125000D03*
X239069000Y-78125000D03*
X239069000Y-76855000D03*
X239069000Y-75585000D03*
X239069000Y-74315000D03*
%TD*%
D48*
%TO.C,C64*%
X357957599Y-130920000D03*
X358917599Y-130920000D03*
%TD*%
D45*
%TO.C,C15*%
X294840000Y-82520000D03*
X294840000Y-81560000D03*
%TD*%
D57*
%TO.C,U15*%
X294572500Y-140437500D03*
X293622500Y-140437500D03*
X292672500Y-140437500D03*
X292672500Y-138162500D03*
X293622500Y-138162500D03*
X294572500Y-138162500D03*
%TD*%
D37*
%TO.C,R109*%
X236840000Y-75600000D03*
X235820000Y-75600000D03*
%TD*%
D58*
%TO.C,C17*%
X268698400Y-85518201D03*
X270598400Y-85518201D03*
%TD*%
D37*
%TO.C,R55*%
X248160000Y-136460000D03*
X247140000Y-136460000D03*
%TD*%
D40*
%TO.C,R99*%
X381590000Y-127900000D03*
X382610000Y-127900000D03*
%TD*%
D37*
%TO.C,R19*%
X337780000Y-105840000D03*
X336760000Y-105840000D03*
%TD*%
D39*
%TO.C,C89*%
X237570000Y-74590000D03*
X236610000Y-74590000D03*
%TD*%
D35*
%TO.C,C16*%
X270888400Y-87078201D03*
X270888400Y-88038201D03*
%TD*%
D18*
%TO.C,TP15*%
X246960000Y-134990000D03*
%TD*%
D38*
%TO.C,C114*%
X356985000Y-79310000D03*
X355435000Y-79310000D03*
%TD*%
D59*
%TO.C,C54*%
X352722599Y-130695000D03*
X352722599Y-129145000D03*
%TD*%
D52*
%TO.C,TV2*%
X365650000Y-118750000D03*
X364700000Y-118750000D03*
X363750000Y-118750000D03*
X363750000Y-116050000D03*
X364700000Y-116050000D03*
X365650000Y-116050000D03*
%TD*%
D53*
%TO.C,C124*%
X341530000Y-80202620D03*
X341530000Y-81752620D03*
%TD*%
D37*
%TO.C,R61*%
X251355000Y-136470000D03*
X250335000Y-136470000D03*
%TD*%
D41*
%TO.C,R1*%
X285350000Y-120360000D03*
X285350000Y-121380000D03*
%TD*%
D36*
%TO.C,C71*%
X358195000Y-133685000D03*
X359745000Y-133685000D03*
%TD*%
D45*
%TO.C,C78*%
X357972599Y-129935000D03*
X357972599Y-128975000D03*
%TD*%
D60*
%TO.C,BT2*%
X376936000Y-76068000D03*
X376936000Y-99568000D03*
D55*
X376936000Y-87818000D03*
%TD*%
D61*
%TO.C,U41*%
X289050000Y-97120000D03*
X288400000Y-97120000D03*
X287750000Y-97120000D03*
X287750000Y-95220000D03*
X288400000Y-95220000D03*
X289050000Y-95220000D03*
%TD*%
D35*
%TO.C,C117*%
X353460000Y-76480000D03*
X353460000Y-77440000D03*
%TD*%
D52*
%TO.C,TV3*%
X365653963Y-137485000D03*
X364703963Y-137485000D03*
X363753963Y-137485000D03*
X363753963Y-134785000D03*
X364703963Y-134785000D03*
X365653963Y-134785000D03*
%TD*%
D18*
%TO.C,TP17*%
X276610000Y-96950000D03*
%TD*%
D51*
%TO.C,C20*%
X293690000Y-84610000D03*
X293690000Y-86510000D03*
%TD*%
D59*
%TO.C,C59*%
X354222599Y-130695000D03*
X354222599Y-129145000D03*
%TD*%
D62*
%TO.C,U8*%
X250320000Y-144700000D03*
X250820000Y-144700000D03*
X251320000Y-144700000D03*
X250320000Y-144200000D03*
X250820000Y-144200000D03*
X251320000Y-144200000D03*
%TD*%
D58*
%TO.C,C19*%
X268688400Y-83498201D03*
X270588400Y-83498201D03*
%TD*%
D63*
%TO.C,D3*%
X338665800Y-101757800D03*
X337090800Y-101757800D03*
%TD*%
D53*
%TO.C,C72*%
X352722599Y-137660000D03*
X352722599Y-139210000D03*
%TD*%
D39*
%TO.C,C63*%
X350987599Y-136185000D03*
X350027599Y-136185000D03*
%TD*%
D45*
%TO.C,C120*%
X350160000Y-80740000D03*
X350160000Y-79780000D03*
%TD*%
D37*
%TO.C,R58*%
X251350000Y-140270000D03*
X250330000Y-140270000D03*
%TD*%
D45*
%TO.C,C11*%
X275008400Y-85978201D03*
X275008400Y-85018201D03*
%TD*%
D64*
%TO.C,Card1*%
X262600000Y-133300000D03*
X261500000Y-133300000D03*
X260400000Y-133300000D03*
X259300000Y-133300000D03*
X258200000Y-133300000D03*
X257100000Y-133300000D03*
X256000000Y-133300000D03*
X254900000Y-133300000D03*
D65*
X253100000Y-143700000D03*
D66*
X253950000Y-133200000D03*
D67*
X253100000Y-137500000D03*
D68*
X253100000Y-147300000D03*
D69*
X264500000Y-133300000D03*
%TD*%
D39*
%TO.C,C30*%
X324500000Y-106050000D03*
X323540000Y-106050000D03*
%TD*%
D40*
%TO.C,R95*%
X381990000Y-109300000D03*
X383010000Y-109300000D03*
%TD*%
D61*
%TO.C,U40*%
X286140000Y-97060000D03*
X285490000Y-97060000D03*
X284840000Y-97060000D03*
X284840000Y-95160000D03*
X285490000Y-95160000D03*
X286140000Y-95160000D03*
%TD*%
D40*
%TO.C,R42*%
X267450000Y-95330000D03*
X268470000Y-95330000D03*
%TD*%
D47*
%TO.C,R9*%
X291960000Y-83020000D03*
X291960000Y-84670000D03*
%TD*%
D70*
%TO.C,SW2*%
X274740000Y-93930000D03*
X270140000Y-93930000D03*
X274740000Y-95530000D03*
X270140000Y-95530000D03*
D71*
X272440000Y-93210000D03*
%TD*%
D36*
%TO.C,C55*%
X358195000Y-136185000D03*
X359745000Y-136185000D03*
%TD*%
D39*
%TO.C,C119*%
X357260000Y-81450000D03*
X356300000Y-81450000D03*
%TD*%
D59*
%TO.C,C122*%
X347460000Y-77182380D03*
X347460000Y-75632380D03*
%TD*%
D41*
%TO.C,R14*%
X335780000Y-107210000D03*
X335780000Y-108230000D03*
%TD*%
D37*
%TO.C,R56*%
X251340000Y-142210000D03*
X250320000Y-142210000D03*
%TD*%
D35*
%TO.C,C81*%
X357972599Y-138420000D03*
X357972599Y-139380000D03*
%TD*%
D53*
%TO.C,C9*%
X291500000Y-74590000D03*
X291500000Y-76140000D03*
%TD*%
D41*
%TO.C,R3*%
X282890000Y-120380000D03*
X282890000Y-121400000D03*
%TD*%
D59*
%TO.C,C13*%
X276248400Y-85683201D03*
X276248400Y-84133201D03*
%TD*%
D72*
%TO.C,U4*%
X332410000Y-103350000D03*
X332410000Y-104000000D03*
X332410000Y-104650000D03*
X332410000Y-105300000D03*
X332410000Y-105950000D03*
X332410000Y-107250000D03*
X332410000Y-106600000D03*
X332410000Y-107900000D03*
X326860000Y-107900000D03*
X326860000Y-107250000D03*
X326860000Y-106600000D03*
X326860000Y-105300000D03*
X326860000Y-105950000D03*
X326860000Y-104650000D03*
X326860000Y-104000000D03*
X326860000Y-103350000D03*
X332410000Y-108550000D03*
X332410000Y-102700000D03*
X326860000Y-108550000D03*
X326860000Y-102700000D03*
%TD*%
D73*
%TO.C,L4*%
X345360000Y-75242380D03*
X345360000Y-77182380D03*
%TD*%
D37*
%TO.C,R92*%
X382710000Y-119100000D03*
X381690000Y-119100000D03*
%TD*%
D59*
%TO.C,C77*%
X356722599Y-130695000D03*
X356722599Y-129145000D03*
%TD*%
D40*
%TO.C,R111*%
X287790000Y-94240000D03*
X288810000Y-94240000D03*
%TD*%
D35*
%TO.C,C21*%
X290720000Y-83130000D03*
X290720000Y-84090000D03*
%TD*%
D48*
%TO.C,C58*%
X357920000Y-137435000D03*
X358880000Y-137435000D03*
%TD*%
D35*
%TO.C,C47*%
X249350000Y-144760000D03*
X249350000Y-145720000D03*
%TD*%
D73*
%TO.C,L5*%
X343630000Y-82142620D03*
X343630000Y-80202620D03*
%TD*%
D40*
%TO.C,R108*%
X246620000Y-75610000D03*
X247640000Y-75610000D03*
%TD*%
D53*
%TO.C,C118*%
X357210000Y-76260000D03*
X357210000Y-77810000D03*
%TD*%
D39*
%TO.C,C112*%
X356340000Y-83360000D03*
X355380000Y-83360000D03*
%TD*%
D48*
%TO.C,C85*%
X368800000Y-125650000D03*
X369760000Y-125650000D03*
%TD*%
D35*
%TO.C,C111*%
X355960000Y-76480000D03*
X355960000Y-77440000D03*
%TD*%
D52*
%TO.C,TV1*%
X365650000Y-113550000D03*
X364700000Y-113550000D03*
X363750000Y-113550000D03*
X363750000Y-110850000D03*
X364700000Y-110850000D03*
X365650000Y-110850000D03*
%TD*%
D40*
%TO.C,R93*%
X381990000Y-108300000D03*
X383010000Y-108300000D03*
%TD*%
D37*
%TO.C,R113*%
X236840000Y-76880000D03*
X235820000Y-76880000D03*
%TD*%
D39*
%TO.C,C84*%
X370720000Y-106890000D03*
X369760000Y-106890000D03*
%TD*%
D35*
%TO.C,C14*%
X275028400Y-87578201D03*
X275028400Y-88538201D03*
%TD*%
D37*
%TO.C,R57*%
X251350000Y-141230000D03*
X250330000Y-141230000D03*
%TD*%
D40*
%TO.C,R98*%
X381590000Y-138700000D03*
X382610000Y-138700000D03*
%TD*%
D74*
%TO.C,L3*%
X326400000Y-98550000D03*
X332400000Y-98550000D03*
%TD*%
D37*
%TO.C,R54*%
X248170000Y-137420000D03*
X247150000Y-137420000D03*
%TD*%
D53*
%TO.C,C80*%
X356722599Y-137660000D03*
X356722599Y-139210000D03*
%TD*%
%TO.C,C66*%
X354222599Y-137660000D03*
X354222599Y-139210000D03*
%TD*%
D48*
%TO.C,C73*%
X357920000Y-134935000D03*
X358880000Y-134935000D03*
%TD*%
D35*
%TO.C,C7*%
X292740000Y-74740000D03*
X292740000Y-75700000D03*
%TD*%
D75*
%TO.C,U1*%
X292529999Y-77550000D03*
X293030001Y-77550000D03*
X293530000Y-77550000D03*
X294029999Y-77550000D03*
X294530000Y-77550000D03*
X295030000Y-77550000D03*
X295530001Y-77550000D03*
X296030000Y-77550000D03*
X296529999Y-77550000D03*
X297030001Y-77550000D03*
D76*
X297736400Y-78247799D03*
D77*
X294780000Y-78997800D03*
D76*
X297736400Y-78747800D03*
X297736400Y-79247800D03*
D78*
X297736400Y-79749300D03*
D75*
X297030001Y-80445600D03*
X296529999Y-80445600D03*
X296030000Y-80445600D03*
X295530001Y-80445600D03*
X295030000Y-80445600D03*
X294530000Y-80445600D03*
X294029999Y-80445600D03*
X293530000Y-80445600D03*
X293030001Y-80445600D03*
X292529999Y-80445600D03*
D79*
X291798600Y-79749300D03*
D80*
X291803600Y-79247800D03*
D81*
X291808600Y-78747800D03*
D82*
X291813600Y-78249301D03*
%TD*%
M02*
